<svg id="圖層_1" data-name="圖層 1" xmlns="http://www.w3.org/2000/svg" viewBox="0 0 363.66 111.06"><defs><style>.cls-1,.cls-2,.cls-3,.cls-4{fill-rule:evenodd;}.cls-2{fill:#1f1a17;}.cls-3{fill:#fc0;}.cls-4{fill:#f60;}.cls-5{stroke:#000;}.cls-5,.cls-6{stroke-miterlimit:10;stroke-width:0.25px;}.cls-6{fill:#fff;stroke:#fff;}</style></defs><path class="cls-1" d="M111.3,47.72a16.66,16.66,0,0,1-2.53,6c-2.53,1-5.46,1-8,1.17a17.23,17.23,0,0,1-4.09,1.36c-1,.19-1.37-1-2-1.36-.2-1.55,1.36-2.53,1.56-3.9a81.52,81.52,0,0,1,5.26-9,5.19,5.19,0,0,1,2.52-3.71c1-1.74,2.73-2.33,4.49-2.92,2.14,1.37,5.25,2.92,4.86,5.85-1.17,2.14-.39,4.67-2.14,6.42m-9.54,17.92c-1.17,2-3.12,3.11-4.67,5.07-2.34.58-2.73,3.3-5.07,3.89-2.53-.2-4.86-.59-7.4-.59-3.31-1.36-8,.39-10.51-2.72-.19-1.76,2-1.76,2-3.51,2.33-2,1.36-6.23,4.67-6.81,1.17.39,2.72-.39,3.31,1,1.16,2.92,4.09,4.48,5.26,7.21.19.58.78.58,1.16.58,1.37-1.36,1.18-3.51,2-5.26-.58-1.36.78-2.53.59-3.89.58-1.17,1.75-2.34,3.11-2.14,2.34-.2,4.48-.78,6.62-.59l.58-.39v.2c1,.58,2.93-.39,3.32,1.16C106.05,61.74,103.13,63.3,101.76,65.64Zm15-13a60.07,60.07,0,0,1,.2-8.38c-.59-3.51-.78-7.79-3.9-10.13-2.33.2-4.08-2.53-6.42-1-2.54-.19-4.1,2.73-6.24,3.89-.58,1.56-1.16,3.32-2.53,4.48-2.33,1.76-2.72,4.48-4.67,6.43,0,1.94-2.14,2.92-2,4.48-.19.2-.19.2-.38-.2a2.16,2.16,0,0,1-1.56,1.36C86,52.4,87.54,48.7,86,46.36c.2-1.75,1.56-3.11,1.56-4.87,1.18-2.34,1.37-5.26,3.51-7V32.34c.78-1.56,1-3.5,2.14-5.06.59-2.54,2.73-5.06,1.17-7.8a8.71,8.71,0,0,0-1-4.28c-1.17.2-1.17-1.16-2.34-1.36-1-1.17-2.73-1-3.7-2.14a17,17,0,0,1-5.07-2.34C80.73,7.81,78.59,7.22,77,5.47c-.39-.2-1.17,0-1.56-.58-1.94-.2-4.28-.4-5.06,1.16,3.12-.19,5.45,2.14,7.2,4.29,2,2.14,2.53,4.86,4.87,6.23,2.14,1.17,4.87,1.55,6.24,3.69a8.86,8.86,0,0,1,.19,4.48c-.39,2.93-1.75,5.46-2.34,8.38a30.25,30.25,0,0,0-2.73,7c-.78,1.75-2.72.78-3.89.58-1.36.2-2.92-.19-4.09.59,1.56,1.17,4.68,2.53,4.28,5.06,2.54,2.72-1.75,5.26-2.14,8-1.75,1.56-.39,4.68-2.53,5.85a17.93,17.93,0,0,0-7.2,1.17c0,.77,1.16,1.36,1.56,1.94a3,3,0,0,1,1.94,1.17c.2,1.75-1.56,2.92-2.53,4.09a35.14,35.14,0,0,1-2.73,2.73c-1.75.38-2.33,2.52-4.08,2.72-2,1-1.56,3.31-2.34,4.68-.58,1.55,1.56,2.33,2.53,3.3,2.33,0,3.89-2.72,6.62-2.14,1.17-2.72,3.7.2,5.26-1.36,3.11.39,6.42-.39,9.54.39.78.58,2.53.58,2.53,2C86.38,82.38,84.62,82,84,83l.2.19a27,27,0,0,0,5.25-1.55c2.53-1.37,4.09,1,6.62.77,2.53,1.17,4.68,2.92,7.2,4.1,3.32.78,5.27,5.06,8.77,3.5,1-1.36.19-3.12-.78-4.28.2-1.76-2.14-1.37-2.92-2.73-1.36-3.31-6-3.31-6.43-7.2.78-1.37,2.34-1.56,3.51-2.54.78-2.14,3.9-2.52,4.09-5.06a20.55,20.55,0,0,0,4.67-8.57c.78-1.56,3.12-1.75,3.7-3.5A2.81,2.81,0,0,0,116.75,52.6Z" transform="translate(-4.19 -4.56)"/><path class="cls-2" d="M38.86,45.58c.39-1.36,2-2.33,1.76-3.89.58-1.76,1.75-3.32,1.75-5.26,1-2.73-1-5.06-1.17-7.79a6.35,6.35,0,0,0-1.56-3.31,8.84,8.84,0,0,0-1.75,5.06c-1,1.76-1.56,3.9-.39,5.84-.78,3.12-.39,6.63-.39,9.74a1.29,1.29,0,0,0-.39,1.36c-1,2.15.2,4.87-.58,7.21,1.36-2.54,1-6.23,2.72-9" transform="translate(-4.19 -4.56)"/><path class="cls-1" d="M59.51,26.11c-1,3.89-3.51,7-4.09,11.1-1.37,2.14-.78,5.06-2.54,7.2,0,2.53-2.52,3.9-2.14,6.43a4.65,4.65,0,0,0-1,2.54c-1,2.32-1.74,4.86-2.52,7.39-1.17,1.75-1,3.89-1.56,5.84-1.36,4.87-1.56,9.54-2.92,14.22-1.37,1.55-1.56,4.09-4.09,4.47-2-1.16-2.34-2.92-2.53-4.86.19-.78,1.17-1.75.19-2.34-.58-3.89-.38-8.17-1-11.88A5.71,5.71,0,0,0,35,69.33c-1,2-.4,4.3-1,6.44-.19,1,1,1.94-.19,2.72.39,2.53-.59,5.65,1.75,7.21-.19,2.34,2.73,2.72,3.31,4.48.39,2.14,2.73,1.75,3.9,3.3,1.94.59,2.14-1.94,3.11-2.72a10.55,10.55,0,0,1,.78-3.32c-.19-2.72.59-4.86,1-7.59,1.76-3.5,1.76-7.6,2-11.88,1.36-1.75.78-4.47,1.74-6.61a45.77,45.77,0,0,1,.59-5.07c1.75-3.89,2.33-8.18,3.31-12.65,1.36-2.34,1.36-5.45,2.14-8.19.58-.58.39-1.36.78-1.94,0-2.53,1.56-4.87,2-7.4" transform="translate(-4.19 -4.56)"/><path class="cls-3" d="M110.64,47.53a16.54,16.54,0,0,1-2.53,6c-2.53,1-5.45,1-8,1.17A16.94,16.94,0,0,1,96,56.09c-1,.2-1.37-1-2-1.36-.19-1.56,1.36-2.53,1.56-3.89a82.31,82.31,0,0,1,5.26-9,5.18,5.18,0,0,1,2.53-3.7c1-1.75,2.72-2.34,4.48-2.92,2.14,1.36,5.25,2.92,4.86,5.84-1.16,2.14-.39,4.67-2.14,6.43M101.1,65.44c-1.17,2-3.11,3.12-4.67,5.06-2.34.59-2.73,3.31-5.07,3.9-2.53-.2-4.86-.59-7.4-.59-3.31-1.36-8,.39-10.51-2.72-.2-1.75,2-1.75,2-3.51,2.33-1.94,1.36-6.23,4.67-6.81,1.17.39,2.73-.39,3.31,1,1.17,2.92,4.09,4.48,5.26,7.21.19.58.78.58,1.17.58,1.36-1.36,1.16-3.5,1.94-5.26-.58-1.36.78-2.53.59-3.89.58-1.17,1.75-2.34,3.11-2.14,2.34-.2,4.48-.78,6.62-.59l.59-.39v.2c1,.58,2.92-.39,3.31,1.17C105.38,61.55,102.46,63.1,101.1,65.44Zm15-13a60,60,0,0,1,.2-8.37c-.59-3.5-.78-7.79-3.9-10.12-2.33.19-4.08-2.54-6.42-1-2.53-.19-4.09,2.73-6.23,3.9-.59,1.55-1.17,3.31-2.53,4.47-2.34,1.76-2.73,4.48-4.68,6.43,0,2-2.14,2.92-2,4.48-.19.19-.19.19-.38-.19a2.23,2.23,0,0,1-1.56,1.36c-3.31-1.17-1.75-4.87-3.31-7.21.19-1.75,1.56-3.11,1.56-4.87,1.16-2.33,1.36-5.25,3.5-7V32.14c.78-1.55,1-3.5,2.14-5.06.59-2.53,2.73-5.06,1.17-7.79a8.57,8.57,0,0,0-1-4.28c-1.17.19-1.17-1.17-2.34-1.37-1-1.16-2.73-1-3.7-2.14a17.17,17.17,0,0,1-5.06-2.33c-1.56-1.56-3.7-2.15-5.26-3.9-.39-.19-1.17,0-1.56-.58-2-.2-4.28-.39-5.06,1.16C72.86,5.66,75.2,8,77,10.14c2,2.14,2.54,4.87,4.87,6.23,2.14,1.17,4.87,1.56,6.23,3.7a8.75,8.75,0,0,1,.2,4.48c-.39,2.92-1.75,5.45-2.34,8.37a30.57,30.57,0,0,0-2.72,7c-.78,1.75-2.73.78-3.9.59-1.36.19-2.92-.2-4.09.58,1.56,1.17,4.68,2.53,4.29,5.06,2.53,2.73-1.76,5.26-2.15,8C75.59,55.7,77,58.82,74.81,60a18,18,0,0,0-7.2,1.17c0,.78,1.17,1.36,1.55,1.94a3,3,0,0,1,2,1.17c.2,1.76-1.55,2.92-2.53,4.09a35.07,35.07,0,0,1-2.72,2.73c-1.76.39-2.34,2.53-4.09,2.72-2,1-1.56,3.31-2.34,4.68C58.85,80.05,61,80.82,62,81.8c2.34,0,3.9-2.73,6.62-2.14,1.17-2.73,3.7.19,5.26-1.37,3.11.39,6.43-.39,9.54.39.78.59,2.53.59,2.53,1.95-.19,1.56-2,1.17-2.53,2.14l.19.2a27.39,27.39,0,0,0,5.26-1.56c2.53-1.36,4.09,1,6.62.78,2.54,1.17,4.68,2.92,7.21,4.09,3.31.78,5.26,5.06,8.76,3.5,1-1.36.2-3.11-.78-4.28.2-1.76-2.14-1.37-2.92-2.73-1.36-3.31-6-3.31-6.43-7.2.78-1.37,2.34-1.56,3.51-2.54.78-2.14,3.9-2.53,4.09-5.06a20.55,20.55,0,0,0,4.67-8.57c.78-1.55,3.12-1.75,3.7-3.5A2.81,2.81,0,0,0,116.09,52.39Z" transform="translate(-4.19 -4.56)"/><path class="cls-4" d="M38.2,45.38c.39-1.36,1.95-2.33,1.76-3.89.58-1.75,1.75-3.31,1.75-5.26,1-2.72-1-5.06-1.17-7.79A6.39,6.39,0,0,0,39,25.13a8.87,8.87,0,0,0-1.75,5.07c-1,1.75-1.56,3.89-.39,5.84-.78,3.11-.39,6.62-.39,9.73a1.31,1.31,0,0,0-.39,1.37c-1,2.14.2,4.87-.58,7.2,1.36-2.53,1-6.23,2.72-9" transform="translate(-4.19 -4.56)"/><path class="cls-3" d="M58.85,25.91c-1,3.9-3.51,7-4.09,11.1-1.37,2.14-.78,5.06-2.54,7.21,0,2.53-2.53,3.89-2.14,6.42a4.61,4.61,0,0,0-1,2.53c-1,2.34-1.75,4.87-2.53,7.4-1.17,1.76-1,3.9-1.56,5.84C43.66,71.28,43.46,76,42.1,80.63c-1.36,1.56-1.56,4.09-4.09,4.48-1.95-1.17-2.34-2.92-2.53-4.87.19-.78,1.17-1.75.19-2.34-.58-3.89-.39-8.17-1-11.87a5.7,5.7,0,0,0-.39,3.11c-1,2-.39,4.28-1,6.43-.2,1,1,1.94-.2,2.72.39,2.53-.58,5.65,1.75,7.21-.19,2.33,2.73,2.72,3.31,4.48.39,2.14,2.73,1.75,3.9,3.31,1.95.58,2.14-2,3.11-2.73A10.49,10.49,0,0,1,46,87.25c-.19-2.73.59-4.87,1-7.59,1.75-3.51,1.75-7.6,1.94-11.88,1.37-1.75.78-4.48,1.76-6.62a46,46,0,0,1,.58-5.07c1.75-3.89,2.34-8.17,3.31-12.65,1.36-2.34,1.36-5.46,2.14-8.18.59-.59.39-1.36.78-1.95,0-2.53,1.56-4.87,2-7.4" transform="translate(-4.19 -4.56)"/><path class="cls-1" d="M17.18,85.36a11.31,11.31,0,0,1,2,1.6,9.52,9.52,0,0,1,1.52,2,1.39,1.39,0,0,0,.77.62.9.9,0,0,0,.85-.14,1.18,1.18,0,0,0,.4-1A2.62,2.62,0,0,0,22.12,87a4.5,4.5,0,0,0-1.67-1,21.15,21.15,0,0,0-3.17-.91.19.19,0,0,0-.2.06c0,.06,0,.12.1.21m-6.25-.5a10.59,10.59,0,0,1-2.37,2.48,14.1,14.1,0,0,1-3.1,1.87c-.1,0-.14.07-.13.17s.08.08.19.08a18.45,18.45,0,0,0,3.62-1.1,13.72,13.72,0,0,0,3.1-1.77.79.79,0,0,1,.55-.23.4.4,0,0,0,.46-.17c.08-.14,0-.31-.28-.52a7,7,0,0,0-1.7-1.06c-.1,0-.17,0-.21,0A1.6,1.6,0,0,0,10.93,84.86Zm10.5-1.65,1.12-10.35c0-.16.05-.26.15-.29.26-.08.41-.19.44-.33a.6.6,0,0,0-.23-.42,8.45,8.45,0,0,0-1.59-1.19.2.2,0,0,0-.22,0,3,3,0,0,0-.69.63.43.43,0,0,1-.34.14H17.76L18,72h2.56l-.39,3.52H18.35l.18.65h1.53l-.4,3.6H17.85l.18.64h1.55l-.3,2.77H9.21L9,80.44h2a.38.38,0,0,0,.37-.19.52.52,0,0,0-.12-.5,5.4,5.4,0,0,0-1.09-1.31.25.25,0,0,0-.43.07,7.24,7.24,0,0,0-.81,1l-.26-3.36H11a.39.39,0,0,0,.37-.18.51.51,0,0,0-.12-.5,5,5,0,0,0-1.09-1.31c-.18-.14-.32-.12-.43.06-.35.43-.64.81-.88,1.14a.57.57,0,0,1-.23.15l-.21-2.92c.34,0,.69-.12,1.07-.2a11.28,11.28,0,0,0,1.75-.63.37.37,0,0,1,.31,0c.22.1.38.08.48,0s0-.33-.19-.57a6.4,6.4,0,0,0-1.5-1.29c-.08,0-.14,0-.17,0A2.09,2.09,0,0,1,10,70,7.54,7.54,0,0,1,9,71.32c-.14.14-.29.28-.46.42a12.91,12.91,0,0,0-2.17-.65c-.09,0-.14,0-.14.06v.13l.87,11.93H4.81l.21.65H23.76a.41.41,0,0,0,.38-.19.53.53,0,0,0-.13-.46,4.76,4.76,0,0,0-1.08-1.35c-.18-.14-.33-.12-.44.06-.35.43-.64.82-.9,1.15ZM17,80.36a21.56,21.56,0,0,0,.52-2.83.47.47,0,0,1,.34-.44c.3-.09.46-.23.48-.41s-.13-.39-.42-.61a15.71,15.71,0,0,0-1.42-1,.38.38,0,0,0-.5,0,7.48,7.48,0,0,1-.87.75H13.74c.19-.54.39-1.26.61-2.16a1.93,1.93,0,0,1,.06-.36h3a.41.41,0,0,0,.38-.18.57.57,0,0,0-.13-.51,5.56,5.56,0,0,0-1.08-1.31.26.26,0,0,0-.44.07q-.52.64-.87,1.14l-.17.15h-.58c.09-.5.17-.91.22-1.21a.28.28,0,0,1,.17-.21c.29-.1.45-.22.46-.37s-.17-.3-.54-.4a18,18,0,0,0-1.92-.41c-.1,0-.16,0-.18.14a7.89,7.89,0,0,1-.09.79,17.63,17.63,0,0,1-.35,2.23,22.41,22.41,0,0,1-.61,2.5.49.49,0,0,0,.15.52,1.79,1.79,0,0,0,1.25.23h2.38c-.05,1-.1,1.79-.17,2.46a5.1,5.1,0,0,1-.23,1c-.06.18-.11.28-.17.31a1.36,1.36,0,0,1-.64.12c-.27,0-.69,0-1.28-.08a14,14,0,0,0,1.13-2,.19.19,0,0,1,.19-.16c.21,0,.32-.13.33-.25s-.1-.23-.35-.31a9.41,9.41,0,0,0-2-.57.12.12,0,0,0-.13.13c0,.09,0,.23,0,.41a12.41,12.41,0,0,1-.35,2.38,11.26,11.26,0,0,1-.8,2.33c0,.06,0,.11,0,.17s.09,0,.16,0a12.07,12.07,0,0,0,1.54-1.69,2.35,2.35,0,0,1,.86.92,3.09,3.09,0,0,1,.23,1,.15.15,0,0,0,.14.16,4.13,4.13,0,0,0,2.17-.62,1.29,1.29,0,0,0,.52-.65A6.48,6.48,0,0,0,17,80.36Z" transform="translate(-4.19 -4.56)"/><path class="cls-1" d="M138,75.61l-.63,1.73c-.09.14-.06.28.09.44l.89,1.23a6,6,0,0,1,.79,1.72,7.27,7.27,0,0,1,.26,1.88,2,2,0,0,1-.17.77,3.16,3.16,0,0,1-.29.41,1.09,1.09,0,0,1-1,.38,5.34,5.34,0,0,1-1.44-.21c-.06,0-.09,0-.1,0V71.86h2.54a26.4,26.4,0,0,1-.92,3.75m-12.94,8.21a1.14,1.14,0,0,0-.33-.27,3.73,3.73,0,0,0-1.33-.46l.44-.71c.2-.42.4-.81.58-1.19h.9a.16.16,0,0,1,.12,0,1.29,1.29,0,0,1,0,.25A16.57,16.57,0,0,1,125.06,83.82Zm7.42-2.29h1.75v3.35l-.82-1.06q-.07-.15-.18,0L132.48,85ZM130.29,85h-1l0-.08.53-3.35h.41Zm3.94-14.51V80.71l-.73-.91c-.09-.14-.17-.14-.27,0l-.67,1.08h-.12V79.8a.25.25,0,0,1,.16-.27c.25-.09.38-.22.38-.42s-.19-.31-.56-.39a16.41,16.41,0,0,0-2-.3c-.1,0-.15,0-.15.13a1.81,1.81,0,0,0,0,.33v2h-2.06a.57.57,0,0,0-.21-.23,12.81,12.81,0,0,0-1.62-1c-.21-.1-.36-.07-.46.08a3.62,3.62,0,0,0-.29.65c0,.06-.1.1-.25.13h-.71l.4-1.07a.2.2,0,0,1,.18-.18q.31-.09.3-.27c0-.13-.13-.23-.38-.3L124,78.51a1.08,1.08,0,0,1,.25-.17,8.16,8.16,0,0,0,1.53-1.29.8.8,0,0,1,.45-.4.43.43,0,0,0,.36-.33c0-.17-.14-.3-.44-.4a7.83,7.83,0,0,0-2-.37.15.15,0,0,0-.17.12,1,1,0,0,1,0,.23,5.16,5.16,0,0,1-.62,1.67,7.36,7.36,0,0,1-1.09,1.52.15.15,0,0,0-.08.19.18.18,0,0,0,.21,0c.21-.1.42-.19.64-.27a16.21,16.21,0,0,1-.27,2.75,14,14,0,0,1-.79,2.83.14.14,0,0,0,0,.14s.09,0,.15,0a7.71,7.71,0,0,0,.92-1.15,2.34,2.34,0,0,1,.22.5,2.63,2.63,0,0,1,.15.75,1.87,1.87,0,0,0,.31,1,1.22,1.22,0,0,0,.53.27,10,10,0,0,1-2.21,3.1c-.1.08-.13.16-.09.23s.16.09.32,0a10.32,10.32,0,0,0,3.27-3,11.88,11.88,0,0,0,2-4.58.47.47,0,0,1,.16-.36v0H128l-.56,3.56a.44.44,0,0,0,.23.5,1.36,1.36,0,0,0,1,0h1.64v3.33a.62.62,0,0,0,.39.59,1.48,1.48,0,0,0,1.3,0,.66.66,0,0,0,.44-.66V85.61h1.79V89a.78.78,0,0,0,.17.53.85.85,0,0,0,.62.2,1.65,1.65,0,0,0,1.06-.29,1.25,1.25,0,0,0,.3-.87V84.38h0a2.35,2.35,0,0,1,1.18.9,2.45,2.45,0,0,1,.36,1.18c0,.13,0,.19.1.19a3.84,3.84,0,0,0,1.69-.31A2.76,2.76,0,0,0,141,85.15a4.66,4.66,0,0,0,.5-1.93,5.36,5.36,0,0,0-.36-2.13,6.66,6.66,0,0,0-1.06-1.79,7.14,7.14,0,0,0-1.6-1.6q-.31-.21-.15-.42a27.64,27.64,0,0,0,1.79-3.21c.3-.55.52-1,.67-1.33s.24-.42.44-.46.38-.15.39-.33a.51.51,0,0,0-.23-.42,7.75,7.75,0,0,0-1.64-1.08.19.19,0,0,0-.25,0,4.33,4.33,0,0,0-.65.62.46.46,0,0,1-.2.13H136.5a8.57,8.57,0,0,0-2-.92h-.19A.34.34,0,0,0,134.23,70.45ZM129.88,76c.3.25.61.53.93.85a6,6,0,0,1,.86,1,2.15,2.15,0,0,0,.89.67.86.86,0,0,0,.83-.15.83.83,0,0,0,.32-.73,2.33,2.33,0,0,0-.42-1.06,3.62,3.62,0,0,0-.94-.44,11,11,0,0,0-1.93-.39l-.4,0a.14.14,0,1,0-.14.25ZM127,74.3h-4.54l.21.65H127v3.58a.6.6,0,0,0,.4.58,1.51,1.51,0,0,0,1.31,0,.68.68,0,0,0,.44-.67V75H133a.38.38,0,0,0,.37-.19.52.52,0,0,0-.12-.46A4.94,4.94,0,0,0,132.13,73c-.18-.14-.33-.12-.44.06-.35.43-.65.81-.89,1.15l-.15.14h-1.54V71.47a.25.25,0,0,1,.16-.27c.25-.08.38-.22.38-.42s-.19-.31-.56-.39a19.07,19.07,0,0,0-2-.3c-.1,0-.15,0-.15.13a1.82,1.82,0,0,0,0,.33Zm3.75-3.62a5.66,5.66,0,0,1-.38,1.48,6.07,6.07,0,0,1-.69,1.37.12.12,0,0,0,0,.17s.06.06.16,0a6.67,6.67,0,0,0,1.46-.77,8.74,8.74,0,0,0,1.29-1.15.25.25,0,0,1,.21-.12c.26,0,.42-.08.46-.23s-.09-.33-.38-.48a6.74,6.74,0,0,0-1.91-.73.16.16,0,0,0-.17.12A2.65,2.65,0,0,0,130.71,70.68Zm-7.19-.15c-.18-.06-.29,0-.35,0s0,.2.14.32a1.88,1.88,0,0,1,.44.75,2.75,2.75,0,0,1,.17.76,2.15,2.15,0,0,0,.41,1,1.06,1.06,0,0,0,.9.23,1.19,1.19,0,0,0,.79-.63,1.63,1.63,0,0,0,.17-1.25,1.83,1.83,0,0,0-.9-.85A4.35,4.35,0,0,0,123.52,70.53Z" transform="translate(-4.19 -4.56)"/><path class="cls-1" d="M149.19,76a28.24,28.24,0,0,1-2.21,3.7.43.43,0,0,0,.06.59,1.77,1.77,0,0,0,1.25.37,1.1,1.1,0,0,0,.67-.25h1.62a12.86,12.86,0,0,1-.83,2.42,13.72,13.72,0,0,1-1.15,2.08s0,0,0,0a0,0,0,0,0,0,0,9.71,9.71,0,0,1-.85.84,15.44,15.44,0,0,1-2,1.39c-.14.06-.2.14-.17.25a11.3,11.3,0,0,0,1.17,1.93.21.21,0,0,0,.31.09c.1-.06.13-.17.1-.36a.63.63,0,0,1,.07-.33c.51-.85,1.1-1.89,1.77-3.14a.25.25,0,0,1,.23-.19c.08,0,.14.06.18.19a5.57,5.57,0,0,0,2,2.35,8,8,0,0,0,3.13,1.23,33.12,33.12,0,0,0,6.12.33,16.44,16.44,0,0,0,3-.17c.05,0,.09-.09.1-.24a2.57,2.57,0,0,1,.33-1.36,1.75,1.75,0,0,1,.82-.83c.14-.06.2-.14.18-.25s-.13-.13-.35-.11a56,56,0,0,1-7.93.67,19.28,19.28,0,0,1-4.19-.31,5.21,5.21,0,0,1-2.12-1,2.21,2.21,0,0,1-.79-1.23c.22-.25.45-.49.68-.72a20.14,20.14,0,0,0,1.9-2.69c.14-.21.26-.32.37-.33s.36-.09.4-.24a.66.66,0,0,0-.23-.47,8.3,8.3,0,0,0-1.27-1.09.21.21,0,0,0-.23,0,3.43,3.43,0,0,0-.67.46.63.63,0,0,1-.27.1h-1c.47-.8,1-1.85,1.65-3.14.1-.14.18-.21.27-.23s.35-.09.39-.23a.57.57,0,0,0-.14-.41,5.46,5.46,0,0,0-1.33-1.17c-.1,0-.18-.06-.23,0a4.27,4.27,0,0,0-.86.67c-.12.12-.23.17-.31.14h-3.23l.19.63m2-5.77c-.22,0-.34,0-.37.12s.05.2.2.3a2.6,2.6,0,0,1,.88.85,5.49,5.49,0,0,1,.52,1,1.81,1.81,0,0,0,.67,1,1.09,1.09,0,0,0,1,0,1.41,1.41,0,0,0,.68-.86,1.79,1.79,0,0,0-.12-1.35,2.38,2.38,0,0,0-1.25-.9A5.49,5.49,0,0,0,147.79,70.18Zm13.33,6.62h-4.77c0-.6.07-1.21.07-1.85V72.66c.87,0,2-.09,3.31-.23a37,37,0,0,0,3.85-.59,1.51,1.51,0,0,1,.6,0c.21,0,.35,0,.42-.14s0-.3-.19-.5a9.87,9.87,0,0,0-1.83-1.27.51.51,0,0,0-.32.06,13.06,13.06,0,0,1-2.33,1.11c-1,.34-2.05.68-3.29,1A10.16,10.16,0,0,0,154.33,71s-.06,0-.06,0V75q0,3-.15,4.68A18.52,18.52,0,0,1,153.6,83a10.38,10.38,0,0,1-.93,2.43.21.21,0,0,0,0,.27c.06.08.16.08.29,0a6.46,6.46,0,0,0,1.82-2A9.71,9.71,0,0,0,156,80.09c.13-.84.24-1.73.31-2.64H160v7.74a.7.7,0,0,0,.36.69,1.51,1.51,0,0,0,1.31.06.83.83,0,0,0,.5-.75V77.45h2.52a.43.43,0,0,0,.41-.17c.06-.1,0-.21-.08-.33a6.77,6.77,0,0,0-1.91-1.82.31.31,0,0,0-.42.05c-.43.47-.83.95-1.19,1.43a.43.43,0,0,1-.23.19Z" transform="translate(-4.19 -4.56)"/><path class="cls-1" d="M179.53,78.86c-.2-.08-.34-.08-.39,0s0,.21.12.35a4.83,4.83,0,0,1,1,1.59,5.08,5.08,0,0,1,.35,1.62,2.2,2.2,0,0,0,.36,1.15,1,1,0,0,0,.95.35,1.43,1.43,0,0,0,.92-.6,1.81,1.81,0,0,0,.29-1.33,3.13,3.13,0,0,0-1-1.74,7,7,0,0,0-2.54-1.39m.23-6.81a21.72,21.72,0,0,1-.5,2.63,11.29,11.29,0,0,1-.81,2.42A12.19,12.19,0,0,1,177.39,79a.18.18,0,0,0,0,.27c0,.08.14.08.27,0a13,13,0,0,0,1-.9,17.1,17.1,0,0,0,1.19-1.5A12.24,12.24,0,0,0,180.89,75h4.79c0,3.14-.12,5.74-.32,7.81a17.65,17.65,0,0,1-.54,3.29,1.71,1.71,0,0,1-.54,1,2.28,2.28,0,0,1-1,.21,18.79,18.79,0,0,1-2.2-.17c-.18,0-.29,0-.34.17a.28.28,0,0,0,.21.29,3.44,3.44,0,0,1,1.71,1,1.6,1.6,0,0,1,.44,1c0,.1.09.16.29.17a3.51,3.51,0,0,0,2.12-.73,3.31,3.31,0,0,0,1.17-1.85,22,22,0,0,0,.62-3.52,71.41,71.41,0,0,0,.42-7.64.45.45,0,0,1,.31-.46c.31-.13.46-.27.46-.44s-.15-.37-.44-.58a13.43,13.43,0,0,0-1.41-.9.37.37,0,0,0-.5,0,8.58,8.58,0,0,1-.88.75h-4.14c.29-.72.6-1.57.93-2.54.06-.22.16-.35.32-.39.33-.06.51-.18.54-.38s-.09-.3-.32-.39a7.13,7.13,0,0,0-1.18-.42,9.87,9.87,0,0,0-1.25-.29c-.18,0-.28.09-.29.31S179.86,71.08,179.76,72.05Zm-8.39,3.15h3.27v5.1h-3.27Zm0,5.74h3.27v5.27h-3.27Zm-2.14-7.16V87.65a.77.77,0,0,0,.16.52.86.86,0,0,0,.63.21,1.71,1.71,0,0,0,1.06-.29,1.21,1.21,0,0,0,.29-.88v-.35h3.27v.83a.74.74,0,0,0,.12.44.89.89,0,0,0,.65.21,1.82,1.82,0,0,0,1-.23.85.85,0,0,0,.4-.67V75.76a.25.25,0,0,1,.16-.23q.44-.15.48-.42a.58.58,0,0,0-.27-.48,6.58,6.58,0,0,0-1.87-.95.39.39,0,0,0-.46.16l-.69.71h-2.06a11.23,11.23,0,0,0,1-1.14,13.58,13.58,0,0,0,1.16-1.94.23.23,0,0,1,.19-.19c.22-.06.34-.14.34-.27s-.13-.25-.4-.33a9.47,9.47,0,0,0-2.21-.48.13.13,0,0,0-.12.14,3.17,3.17,0,0,0,0,.46,10.46,10.46,0,0,1-.09,2,9.87,9.87,0,0,1-.41,1.75h-.09a8.84,8.84,0,0,0-2-.92h-.18A.3.3,0,0,0,169.23,73.78Z" transform="translate(-4.19 -4.56)"/><path class="cls-1" d="M204.34,73.78v1.94h-4.93V73.78m-4-2h13.26v6a.5.5,0,0,0-.1-.19,4.79,4.79,0,0,0-1.08-1.35c-.18-.14-.33-.12-.44.06q-.53.64-.9,1.14l-.14.15h-2.94V76.36h3.75c.06,0,.09-.07.11-.23a.69.69,0,0,0-.11-.41l-.33-.44v-.87c0-.13,0-.21.1-.24.27,0,.4-.16.4-.33a.41.41,0,0,0-.19-.35,9.38,9.38,0,0,0-1.62-1.09.23.23,0,0,0-.23,0,4.33,4.33,0,0,0-.63.59.45.45,0,0,1-.27.14h-4.66a8.5,8.5,0,0,0-1.94-.83c-.14,0-.2,0-.19.06v3.9c0,.26,0,.44.15.52a1.1,1.1,0,0,0,.66.19,1.92,1.92,0,0,0,1-.29,1.43,1.43,0,0,0,.27-.32h1.61v1.19h-5.4l.21.65h12.58a.4.4,0,0,0,.35-.15v9.83H195.41Zm-2.15-1.33V89a.76.76,0,0,0,.17.52.86.86,0,0,0,.63.21,1.67,1.67,0,0,0,1.06-.29,1.2,1.2,0,0,0,.29-.87v0h13.26v.59a.71.71,0,0,0,.13.43.87.87,0,0,0,.64.21,1.77,1.77,0,0,0,1-.23.8.8,0,0,0,.39-.66V72.34a.27.27,0,0,1,.17-.23c.29-.09.45-.23.48-.41a.57.57,0,0,0-.28-.48,6.32,6.32,0,0,0-1.87-1,.39.39,0,0,0-.46.17c-.2.22-.44.46-.68.71H195.39a8.73,8.73,0,0,0-1.9-.84h-.18S193.28,70.36,193.26,70.45Zm12.25,9.83v5.43h-6.93V80.28Zm-9.08-1.21v7.18c0,.27,0,.44.15.52a1,1,0,0,0,.66.19,1.85,1.85,0,0,0,1-.29,1.63,1.63,0,0,0,.27-.31h7a.54.54,0,0,0,.19.46,1,1,0,0,0,.62.18,1.57,1.57,0,0,0,.85-.21.73.73,0,0,0,.48-.68V80.78a.29.29,0,0,1,.21-.29c.25-.1.4-.22.44-.38a.53.53,0,0,0-.23-.43,7.07,7.07,0,0,0-1.85-.94.31.31,0,0,0-.36,0,6.07,6.07,0,0,1-.77.85h-6.68a8.93,8.93,0,0,0-1.79-.75c-.14,0-.2,0-.19.07ZM203,84h-1.8s0,0,0-.08V82H203Zm-2,.48h4.06c.06,0,.09-.06.09-.19a.44.44,0,0,0-.09-.29l-.21-.29V82.61a.19.19,0,0,1,.09-.19c.22,0,.34-.16.35-.31a.34.34,0,0,0-.17-.29,6.89,6.89,0,0,0-1.43-1,.19.19,0,0,0-.19,0,2.86,2.86,0,0,0-.54.56.38.38,0,0,1-.21.15h-1.48a10.17,10.17,0,0,0-1.81-.79c-.13,0-.18,0-.17.06v3.33a.62.62,0,0,0,.13.48,1.14,1.14,0,0,0,.58.17,1.78,1.78,0,0,0,.87-.26Z" transform="translate(-4.19 -4.56)"/><path class="cls-1" d="M230.13,83.61v2h-9.26v-2m9.26,2.66v2.11h-9.26V86.27ZM229.71,83h-8.86a8.69,8.69,0,0,0-1.94-.83c-.14,0-.2,0-.19.06V89c0,.26,0,.44.15.52a1,1,0,0,0,.66.19,2,2,0,0,0,1-.29.74.74,0,0,0,.29-.4h9.31a.65.65,0,0,0,.21.54,1,1,0,0,0,.62.19,1.77,1.77,0,0,0,.85-.21.74.74,0,0,0,.48-.69V84.11a.3.3,0,0,1,.21-.29c.25-.1.4-.22.44-.38s-.06-.28-.23-.43a7.07,7.07,0,0,0-1.85-.94.31.31,0,0,0-.36,0A6.07,6.07,0,0,1,229.71,83ZM230,72.53v1.69h-3.68V72.53Zm0,2.33v1.52h-3.68V74.86ZM231.27,77a.18.18,0,0,0-.12.12q-.53.69-.9,1.23a.89.89,0,0,1-.33.17h-3.64V77Zm-15,4.33h18.16a.38.38,0,0,0,.37-.19.55.55,0,0,0-.12-.46,5.64,5.64,0,0,0-1.23-1.48.3.3,0,0,0-.48.09c-.35.45-.65.87-.89,1.23a1,1,0,0,1-.34.16h-5.47V79.2h6.33A.38.38,0,0,0,233,79a.52.52,0,0,0-.12-.46,5.49,5.49,0,0,0-1.23-1.48l-.06,0h.64c.14,0,.22-.11.23-.33s0-.32-.08-.32l-.25-.31V74.86h2.75a.39.39,0,0,0,.37-.18.52.52,0,0,0-.12-.46,5.49,5.49,0,0,0-1.23-1.48.3.3,0,0,0-.48.08c-.34.46-.64.87-.89,1.23a1,1,0,0,1-.34.17h-.06V73.15a.22.22,0,0,1,.1-.22c.27-.06.4-.17.4-.34a.42.42,0,0,0-.19-.35,8.46,8.46,0,0,0-1.62-1.08.19.19,0,0,0-.23,0,3.8,3.8,0,0,0-.63.58.52.52,0,0,1-.27.15h-3.39v-.67c0-.13,0-.19.12-.21.33-.09.5-.24.5-.41s-.14-.27-.42-.38a15.44,15.44,0,0,0-2.22-.4q-.15,0-.15.09v2H218.7l.18.64h5.23v1.69h-8.2l.2.64h8v1.52h-5.5l.17.65h5.33v1.52h-6.54l.21.65h6.33v1.51h-8Z" transform="translate(-4.19 -4.56)"/><path class="cls-1" d="M245.09,80.53V82.3H242.4V80.53m2.69-2.33v1.68H242.4V78.2Zm1.64,6.91a6,6,0,0,0-2.25-1.31c-.18-.08-.29-.09-.35,0a.28.28,0,0,0,.08.33,4,4,0,0,1,.79,1.44s0,.11.05.16a18,18,0,0,1-2.65.56V83h2.69a.7.7,0,0,0,.19.62,1,1,0,0,0,.62.19,1.81,1.81,0,0,0,.86-.21.77.77,0,0,0,.48-.69V78.69a.31.31,0,0,1,.21-.29.63.63,0,0,0,.43-.37c0-.14-.06-.28-.23-.44a7.39,7.39,0,0,0-1.85-.94.33.33,0,0,0-.36,0,6.07,6.07,0,0,1-.77.85H242.4a10.27,10.27,0,0,0-1.83-.81c.43-.39.88-.85,1.36-1.38l.16.5h4.06a.43.43,0,0,0,.36-.12.25.25,0,0,0-.09-.29,7,7,0,0,0-1.7-1.42c-.14-.1-.28-.07-.42.08a13.73,13.73,0,0,0-1.06,1l-.11.09h-1.06a1.45,1.45,0,0,1,.19-.23,16.39,16.39,0,0,0,1.93-3.15,4.23,4.23,0,0,1,.57.56,4.71,4.71,0,0,1,.75,1.19,2.1,2.1,0,0,0,.68.88,1.07,1.07,0,0,0,.94,0,1.23,1.23,0,0,0,.59-.81,1.83,1.83,0,0,0-.17-1.23,2.83,2.83,0,0,0-1.38-1.06,5.24,5.24,0,0,0-1.62-.31s0,0,0,0a.22.22,0,0,1,.21-.23c.26,0,.4-.14.42-.29s-.16-.31-.48-.4a12,12,0,0,0-2.15-.39c-.1,0-.15,0-.17.16a2.54,2.54,0,0,1,0,.29,12.5,12.5,0,0,1-1.14,4,14.78,14.78,0,0,1-2,3.19.16.16,0,0,0,0,.19s.08.07.19,0c.26-.18.54-.38.85-.58v9c0,.48-.14.76-.42.86l-.14.06c-.1,0-.1.14,0,.38.25.51.52,1,.81,1.49.39.64.68,1,.87.94s.3-.19.36-.56c0-.22.22-.44.62-.67l.83-.52a14.46,14.46,0,0,0,1.63-1.18,3.3,3.3,0,0,1,.41-.36c0,.18,0,.36.07.55a1.78,1.78,0,0,0,.27,1.06,1,1,0,0,0,.87.35,1.17,1.17,0,0,0,.85-.52,1.67,1.67,0,0,0,.34-1.21A2.72,2.72,0,0,0,246.73,85.11ZM254.6,81h-3.53V77.53h3.6v3.33Zm.73,3.56v3.76h-4.26V84.53Zm-6.41-8.06V89a.76.76,0,0,0,.17.52.85.85,0,0,0,.62.21,1.71,1.71,0,0,0,1.06-.29.74.74,0,0,0,.25-.48h6.8c.05,0,.08-.07.1-.23a.81.81,0,0,0-.1-.42l-.34-.43V85.15c0-.13,0-.2.1-.23.27-.06.4-.17.4-.33a.44.44,0,0,0-.19-.36,8.46,8.46,0,0,0-1.62-1.08.23.23,0,0,0-.23,0,4.22,4.22,0,0,0-.62.58.46.46,0,0,1-.28.15h-4V81.61h6c.06,0,.09-.08.11-.23a.69.69,0,0,0-.11-.41l-.25-.34V78.15c0-.12,0-.2.11-.23q.39-.08.39-.33a.42.42,0,0,0-.18-.35,9.46,9.46,0,0,0-1.63-1.09.24.24,0,0,0-.23,0,3.82,3.82,0,0,0-.62.59.5.5,0,0,1-.28.14h-3.18a11.38,11.38,0,0,0-1.73-.81,0,0,0,0,1,0,0,3.06,3.06,0,0,0,.34-1.71c0-.16,0-.32-.07-.47H256a8.7,8.7,0,0,1-.54,1.89.56.56,0,0,0,0,.31s.15,0,.32,0a27.19,27.19,0,0,0,2.49-1.6.82.82,0,0,1,.3-.07.48.48,0,0,0,.43-.2.36.36,0,0,0-.12-.42,11.08,11.08,0,0,0-2.05-1.29.27.27,0,0,0-.3,0,3.9,3.9,0,0,0-.75.58,2.32,2.32,0,0,1-.32.17h-1.73A1.07,1.07,0,0,0,254,73a1.73,1.73,0,0,0,.42-1.31,2,2,0,0,0-.77-1.05,4.79,4.79,0,0,0-1.77-.76c-.21-.1-.34-.11-.39,0s0,.21.08.35a2.33,2.33,0,0,1,.31.85,3,3,0,0,1,0,.84,1.46,1.46,0,0,0,.37,1.33h-2.66a4.27,4.27,0,0,0-.34-.9c0-.09-.11-.14-.16-.12s-.09.07-.11.17a2.76,2.76,0,0,1-.33,1.22,2.7,2.7,0,0,1-.67.73,1.42,1.42,0,0,0-.64.94,1.1,1.1,0,0,0,.23.94,1,1,0,0,0,.89.35A2.07,2.07,0,0,0,248.92,76.47Z" transform="translate(-4.19 -4.56)"/><path class="cls-3" d="M16.55,85.17a11.79,11.79,0,0,1,2,1.6,9.52,9.52,0,0,1,1.52,2,1.37,1.37,0,0,0,.77.63.92.92,0,0,0,.86-.15,1.21,1.21,0,0,0,.39-1,2.49,2.49,0,0,0-.56-1.43,4.29,4.29,0,0,0-1.67-1,21.07,21.07,0,0,0-3.16-.92.22.22,0,0,0-.21.06c0,.06,0,.12.1.21m-6.24-.5a10.66,10.66,0,0,1-2.38,2.48A13.87,13.87,0,0,1,4.83,89a.14.14,0,0,0-.13.17s.08.08.19.08a18.25,18.25,0,0,0,3.62-1.1,13.8,13.8,0,0,0,3.11-1.77.77.77,0,0,1,.54-.23.4.4,0,0,0,.46-.17c.08-.14,0-.31-.27-.52a7.17,7.17,0,0,0-1.71-1.06c-.1,0-.17,0-.21,0A2,2,0,0,0,10.31,84.67ZM20.8,83l1.13-10.35c0-.16,0-.26.14-.29.26-.08.41-.19.44-.33a.6.6,0,0,0-.23-.42,8.66,8.66,0,0,0-1.58-1.18.2.2,0,0,0-.23,0,3.81,3.81,0,0,0-.69.63.45.45,0,0,1-.33.15H17.14l.18.64h2.57l-.4,3.52H17.72l.19.65h1.52l-.4,3.6H17.22l.19.64H19L18.66,83H8.58l-.21-2.77h2a.38.38,0,0,0,.37-.18.51.51,0,0,0-.12-.5,5.65,5.65,0,0,0-1.08-1.32c-.19-.13-.33-.11-.44.07a7.24,7.24,0,0,0-.81,1L8.06,76h2.33a.38.38,0,0,0,.37-.18.51.51,0,0,0-.12-.5A5.4,5.4,0,0,0,9.56,74c-.19-.14-.33-.12-.44.06-.35.43-.64.81-.88,1.15a.76.76,0,0,1-.22.14l-.21-2.92c.33,0,.68-.12,1.06-.2a11.28,11.28,0,0,0,1.75-.63.41.41,0,0,1,.31,0c.22.1.38.08.48,0s0-.33-.19-.56a6.4,6.4,0,0,0-1.5-1.29c-.08-.05-.14-.05-.16,0a1.1,1.1,0,0,1-.15.16,7.1,7.1,0,0,1-1.08,1.29c-.14.14-.29.28-.46.42A13.6,13.6,0,0,0,5.7,70.9c-.09,0-.14,0-.14.07v.12L6.43,83H4.19l.2.65H23.13a.39.39,0,0,0,.38-.19.53.53,0,0,0-.13-.46,4.76,4.76,0,0,0-1.08-1.35c-.18-.14-.33-.12-.44.06-.35.43-.64.82-.89,1.15Zm-4.44-2.85a23.32,23.32,0,0,0,.53-2.83.45.45,0,0,1,.33-.44c.3-.09.46-.23.48-.41s-.13-.39-.42-.61a17,17,0,0,0-1.41-1,.37.37,0,0,0-.5,0,8.77,8.77,0,0,1-.88.75H13.12c.18-.54.38-1.27.6-2.17a3.17,3.17,0,0,1,.06-.35h3a.41.41,0,0,0,.38-.19.54.54,0,0,0-.13-.5A5.19,5.19,0,0,0,16,71.17c-.18-.13-.33-.11-.44.07q-.53.65-.87,1.14a1.14,1.14,0,0,1-.17.15h-.58c.09-.5.17-.9.23-1.21a.25.25,0,0,1,.16-.21c.29-.09.45-.22.46-.37s-.17-.3-.54-.4a18.39,18.39,0,0,0-1.91-.41c-.1,0-.16,0-.19.14,0,.29,0,.56-.08.79a19.91,19.91,0,0,1-.36,2.23,22.57,22.57,0,0,1-.6,2.5.46.46,0,0,0,.14.52,1.75,1.75,0,0,0,1.25.23h2.38c0,1-.1,1.79-.17,2.46a4.94,4.94,0,0,1-.23,1c0,.18-.11.28-.17.31a1.35,1.35,0,0,1-.64.13c-.27,0-.69,0-1.27-.09a14.8,14.8,0,0,0,1.12-2,.19.19,0,0,1,.19-.17c.21,0,.32-.12.33-.25s-.1-.23-.35-.31a9,9,0,0,0-2-.56c-.08,0-.13,0-.13.12s0,.24,0,.42a11.58,11.58,0,0,1-.35,2.37,11.63,11.63,0,0,1-.79,2.33.11.11,0,0,0,0,.17s.09,0,.16,0a12.07,12.07,0,0,0,1.54-1.69,2.35,2.35,0,0,1,.86.92,3.09,3.09,0,0,1,.23,1,.15.15,0,0,0,.14.16,4.13,4.13,0,0,0,2.17-.62,1.26,1.26,0,0,0,.52-.64A6.84,6.84,0,0,0,16.36,80.17Z" transform="translate(-4.19 -4.56)"/><path class="cls-3" d="M137.37,75.43c-.35.95-.55,1.53-.62,1.72s-.07.29.08.44l.9,1.23a6.48,6.48,0,0,1,.79,1.73,7.09,7.09,0,0,1,.25,1.87,1.87,1.87,0,0,1-.17.77,2.54,2.54,0,0,1-.29.42,1.11,1.11,0,0,1-1,.37,5.34,5.34,0,0,1-1.44-.21s-.09,0-.1,0V71.68h2.54a27.1,27.1,0,0,1-.92,3.75m-12.93,8.2a1.35,1.35,0,0,0-.34-.27,3.73,3.73,0,0,0-1.33-.46l.44-.71c.21-.41.4-.81.58-1.19h.9a.12.12,0,0,1,.12,0,.69.69,0,0,1,0,.24A16.6,16.6,0,0,1,124.44,83.63Zm7.41-2.29h1.75v3.35l-.81-1.06c-.06-.1-.12-.1-.19,0l-.75,1.15Zm-2.19,3.44h-1a.51.51,0,0,1,0-.09l.53-3.35h.41Zm3.94-14.52V80.53l-.73-.92q-.12-.21-.27,0l-.67,1.08h-.12V79.61a.26.26,0,0,1,.17-.27c.25-.08.37-.22.37-.42s-.19-.31-.56-.39a16,16,0,0,0-2-.29q-.15,0-.15.12a1.82,1.82,0,0,0,0,.33v2h-2.06a.64.64,0,0,0-.21-.23,13.27,13.27,0,0,0-1.62-.95c-.21-.1-.36-.08-.46.08a4,4,0,0,0-.29.64c0,.06-.1.1-.25.13h-.71c.14-.38.27-.73.4-1.06a.22.22,0,0,1,.19-.19c.2-.06.3-.15.29-.27s-.13-.22-.38-.29c-.47-.1-.87-.18-1.19-.23a1.17,1.17,0,0,1,.26-.17,7.4,7.4,0,0,0,1.52-1.29.88.88,0,0,1,.45-.4.42.42,0,0,0,.36-.33c0-.16-.13-.3-.44-.4a7.83,7.83,0,0,0-2-.37c-.1,0-.15,0-.16.13a1.12,1.12,0,0,1,0,.22,4.86,4.86,0,0,1-.62,1.67,7.45,7.45,0,0,1-1.08,1.52.16.16,0,0,0-.09.19.19.19,0,0,0,.21,0c.21-.1.43-.19.65-.27a17.2,17.2,0,0,1-.27,2.75,14,14,0,0,1-.8,2.83.14.14,0,0,0,.05.15s.09,0,.14,0a7.71,7.71,0,0,0,.92-1.15,3.36,3.36,0,0,1,.23.5,3.07,3.07,0,0,1,.14.75,1.87,1.87,0,0,0,.32,1,1.18,1.18,0,0,0,.52.27,10,10,0,0,1-2.21,3.1c-.1.09-.13.16-.08.23s.16.09.31,0a10.27,10.27,0,0,0,3.27-3,12,12,0,0,0,2-4.59.43.43,0,0,1,.16-.35v0h.25l-.56,3.56a.44.44,0,0,0,.23.5,1.31,1.31,0,0,0,1,0h1.64v3.33a.63.63,0,0,0,.4.59,1.52,1.52,0,0,0,1.3,0,.69.69,0,0,0,.43-.67V85.42h1.79v3.37a.78.78,0,0,0,.17.53.84.84,0,0,0,.62.2,1.68,1.68,0,0,0,1.07-.29,1.25,1.25,0,0,0,.29-.87V84.19h0a2.38,2.38,0,0,1,1.19.9,2.59,2.59,0,0,1,.35,1.18c0,.13,0,.19.1.19a3.84,3.84,0,0,0,1.69-.31A2.72,2.72,0,0,0,140.37,85a4.66,4.66,0,0,0,.5-1.93,5.51,5.51,0,0,0-.35-2.13,7,7,0,0,0-1.07-1.79,7.14,7.14,0,0,0-1.6-1.6c-.21-.14-.26-.28-.14-.42a30,30,0,0,0,1.79-3.21c.29-.55.51-1,.66-1.33a.66.66,0,0,1,.44-.46c.25,0,.38-.15.4-.33a.52.52,0,0,0-.24-.42,7.51,7.51,0,0,0-1.64-1.08.19.19,0,0,0-.25,0,4.89,4.89,0,0,0-.65.62.46.46,0,0,1-.2.13h-2.15a8.57,8.57,0,0,0-2-.92.56.56,0,0,0-.19,0A.48.48,0,0,0,133.6,70.26Zm-4.35,5.52c.3.25.62.53.94.85a6.39,6.39,0,0,1,.85,1,2.15,2.15,0,0,0,.89.67.85.85,0,0,0,.84-.15.84.84,0,0,0,.31-.72,2.21,2.21,0,0,0-.42-1.07,3.36,3.36,0,0,0-.94-.43,9.92,9.92,0,0,0-1.93-.4l-.4,0a.22.22,0,0,0-.21.06A.19.19,0,0,0,129.25,75.78Zm-2.92-1.67h-4.54l.21.65h4.33v3.58a.62.62,0,0,0,.4.59A1.54,1.54,0,0,0,128,79a.68.68,0,0,0,.44-.67V74.76h3.85a.37.37,0,0,0,.37-.19c.05-.12,0-.27-.12-.46a4.76,4.76,0,0,0-1.08-1.35c-.18-.14-.33-.12-.44.06-.35.43-.64.81-.89,1.15l-.15.14h-1.54V71.28a.26.26,0,0,1,.17-.27c.25-.08.37-.22.37-.41s-.19-.32-.56-.4a16.61,16.61,0,0,0-2-.29q-.15,0-.15.12a1.82,1.82,0,0,0,0,.33Zm3.75-3.62a5.64,5.64,0,0,1-.37,1.48,6.51,6.51,0,0,1-.69,1.37.12.12,0,0,0,0,.17s.07.06.17,0a6.84,6.84,0,0,0,1.45-.77,8.74,8.74,0,0,0,1.29-1.15.26.26,0,0,1,.21-.12c.27,0,.42-.08.46-.23s-.08-.33-.38-.48a7.09,7.09,0,0,0-1.91-.73.16.16,0,0,0-.17.13A2.4,2.4,0,0,0,130.08,70.49Zm-7.18-.15c-.18,0-.3,0-.36,0s0,.2.15.31a2,2,0,0,1,.43.75,2.43,2.43,0,0,1,.17.77,2.15,2.15,0,0,0,.42,1,1,1,0,0,0,.89.23,1.19,1.19,0,0,0,.79-.63,1.58,1.58,0,0,0,.17-1.25,1.84,1.84,0,0,0-.89-.85A4.35,4.35,0,0,0,122.9,70.34Z" transform="translate(-4.19 -4.56)"/><path class="cls-3" d="M148.56,75.76a28.36,28.36,0,0,1-2.21,3.71.41.41,0,0,0,.06.58,1.72,1.72,0,0,0,1.25.37,1,1,0,0,0,.67-.25H150a12,12,0,0,1-.83,2.42A14.53,14.53,0,0,1,148,84.67s0,0,0,0a0,0,0,0,0,0,0,8.48,8.48,0,0,1-.85.84,15.44,15.44,0,0,1-2,1.39c-.14.06-.19.14-.17.25a12.5,12.5,0,0,0,1.17,1.94.21.21,0,0,0,.31.08c.1-.06.13-.17.11-.35a.55.55,0,0,1,.06-.34c.51-.84,1.1-1.89,1.77-3.14a.26.26,0,0,1,.23-.19c.08,0,.14.07.19.19a5.48,5.48,0,0,0,2,2.35A8,8,0,0,0,153.87,89a31.43,31.43,0,0,0,6.12.33,16.8,16.8,0,0,0,3-.16c.06,0,.09-.1.1-.25a2.53,2.53,0,0,1,.34-1.36,1.74,1.74,0,0,1,.81-.83.24.24,0,0,0,.19-.25c0-.1-.14-.13-.36-.1a55.79,55.79,0,0,1-7.93.66,19.34,19.34,0,0,1-4.19-.31,5.27,5.27,0,0,1-2.12-1,2.19,2.19,0,0,1-.79-1.22,9.58,9.58,0,0,1,.69-.73,19.47,19.47,0,0,0,1.89-2.69c.14-.21.26-.32.37-.33s.36-.09.4-.23a.63.63,0,0,0-.23-.48A7.84,7.84,0,0,0,150.93,79a.19.19,0,0,0-.23,0,3.47,3.47,0,0,0-.66.46.77.77,0,0,1-.27.11h-1c.47-.81,1-1.86,1.64-3.15a.53.53,0,0,1,.27-.23c.22,0,.35-.08.4-.22a.64.64,0,0,0-.15-.42,5.46,5.46,0,0,0-1.33-1.17c-.1,0-.18-.06-.23,0a4.27,4.27,0,0,0-.86.67c-.12.12-.22.17-.31.14H145l.19.63m2-5.77c-.22,0-.34,0-.37.13s.06.19.2.29a2.6,2.6,0,0,1,.88.85,4.91,4.91,0,0,1,.52,1,1.88,1.88,0,0,0,.67,1,1.12,1.12,0,0,0,1,0,1.47,1.47,0,0,0,.69-.85,1.87,1.87,0,0,0-.13-1.36,2.37,2.37,0,0,0-1.25-.89A5.48,5.48,0,0,0,147.16,70Zm13.33,6.62h-4.77c.05-.59.07-1.21.07-1.85V72.47c.87,0,2-.09,3.31-.23a36.57,36.57,0,0,0,3.85-.59,2.08,2.08,0,0,1,.61,0c.2,0,.34,0,.41-.14s0-.3-.19-.5A10.05,10.05,0,0,0,162,69.74a.65.65,0,0,0-.31.06,13.19,13.19,0,0,1-2.34,1.11c-1,.34-2.05.68-3.29,1a10,10,0,0,0-2.31-1.07s-.06,0-.06,0v3.87q0,3-.15,4.68a19.37,19.37,0,0,1-.51,3.32,10.5,10.5,0,0,1-.94,2.43.21.21,0,0,0,0,.27q.09.14.3,0a6.56,6.56,0,0,0,1.81-2,9.71,9.71,0,0,0,1.27-3.56c.14-.84.24-1.72.31-2.64h3.69V85a.69.69,0,0,0,.35.68,1.51,1.51,0,0,0,1.31.07.85.85,0,0,0,.5-.75V77.26h2.52a.46.46,0,0,0,.42-.17c.05-.09,0-.21-.09-.33A6.73,6.73,0,0,0,162.47,75a.3.3,0,0,0-.42,0,16.84,16.84,0,0,0-1.18,1.43.5.5,0,0,1-.24.19Z" transform="translate(-4.19 -4.56)"/><path class="cls-3" d="M178.9,78.67q-.3-.12-.39,0t.12.36a4.67,4.67,0,0,1,1,1.58,5.39,5.39,0,0,1,.36,1.62,2.17,2.17,0,0,0,.35,1.15,1,1,0,0,0,1,.35,1.41,1.41,0,0,0,.91-.6,1.82,1.82,0,0,0,.3-1.33,3.2,3.2,0,0,0-1-1.73,6.94,6.94,0,0,0-2.55-1.4m.24-6.81a21.63,21.63,0,0,1-.51,2.63,11.11,11.11,0,0,1-.81,2.42,11.43,11.43,0,0,1-1.06,1.91c-.08.1-.09.19,0,.27s.15.08.27,0,.59-.51,1-.89a18.74,18.74,0,0,0,1.19-1.5,12.82,12.82,0,0,0,1.08-1.92h4.79q0,4.71-.31,7.81a19.49,19.49,0,0,1-.54,3.29,1.76,1.76,0,0,1-.55,1,2.27,2.27,0,0,1-1,.21,18.92,18.92,0,0,1-2.21-.17c-.18,0-.29,0-.33.17s.05.23.2.29a3.44,3.44,0,0,1,1.71,1,1.6,1.6,0,0,1,.44,1c0,.09.09.15.29.16a3.49,3.49,0,0,0,2.12-.73,3.27,3.27,0,0,0,1.17-1.85,22.81,22.81,0,0,0,.63-3.52,74,74,0,0,0,.41-7.64.45.45,0,0,1,.31-.46c.31-.13.46-.27.46-.44s-.14-.37-.43-.58a14.81,14.81,0,0,0-1.42-.9.38.38,0,0,0-.5,0,6.75,6.75,0,0,1-.88.75h-4.14c.29-.72.6-1.56.94-2.54a.47.47,0,0,1,.31-.39c.33-.06.51-.18.54-.38s-.09-.3-.31-.39a7.68,7.68,0,0,0-1.19-.42,9.49,9.49,0,0,0-1.25-.29c-.18,0-.27.09-.29.31S179.23,70.89,179.14,71.86ZM170.74,75H174v5.1h-3.27Zm0,5.75H174V86h-3.27Zm-2.14-7.17V87.46a.76.76,0,0,0,.17.52.82.82,0,0,0,.62.21,1.71,1.71,0,0,0,1.06-.29,1.21,1.21,0,0,0,.29-.88v-.35H174v.83a.74.74,0,0,0,.12.44.89.89,0,0,0,.65.21,1.82,1.82,0,0,0,1-.23.85.85,0,0,0,.4-.67V75.57a.26.26,0,0,1,.16-.23c.3-.1.46-.23.48-.42a.55.55,0,0,0-.27-.48,6.58,6.58,0,0,0-1.87-1,.38.38,0,0,0-.46.17l-.69.7h-2.06a11.23,11.23,0,0,0,1-1.14,14.7,14.7,0,0,0,1.17-1.94.21.21,0,0,1,.18-.19c.22,0,.34-.14.34-.27s-.13-.25-.4-.33a10,10,0,0,0-2.21-.48.13.13,0,0,0-.12.15,3,3,0,0,0,0,.45,11.2,11.2,0,0,1-.08,2,10.86,10.86,0,0,1-.42,1.75h-.08a8.53,8.53,0,0,0-2-.91c-.1,0-.16,0-.19,0A.33.33,0,0,0,168.6,73.59Z" transform="translate(-4.19 -4.56)"/><path class="cls-3" d="M203.71,73.59v1.94h-4.93V73.59m-4-2h13.27v6a.54.54,0,0,0-.11-.19A4.76,4.76,0,0,0,206.86,76c-.18-.14-.33-.12-.44.06-.35.43-.65.81-.89,1.15l-.15.14h-2.94V76.17h3.75c.06,0,.09-.07.11-.23a.71.71,0,0,0-.11-.41l-.33-.44v-.87c0-.13,0-.21.1-.23.27-.06.4-.17.4-.34a.42.42,0,0,0-.19-.35,8.46,8.46,0,0,0-1.62-1.08.19.19,0,0,0-.23,0,3.37,3.37,0,0,0-.62.58.5.5,0,0,1-.28.14h-4.66a9,9,0,0,0-1.94-.83c-.14,0-.2,0-.19.06v3.9c0,.27,0,.44.15.52a1.05,1.05,0,0,0,.66.19,2,2,0,0,0,1-.29,2.26,2.26,0,0,0,.27-.32h1.6v1.19h-5.4l.21.65h12.58a.42.42,0,0,0,.36-.15v9.83H194.78Zm-2.14-1.33V88.79a.74.74,0,0,0,.16.52.86.86,0,0,0,.63.21,1.65,1.65,0,0,0,1.06-.29,1.2,1.2,0,0,0,.29-.87v0h13.27v.58a.74.74,0,0,0,.12.44.92.92,0,0,0,.65.21,1.75,1.75,0,0,0,1-.24.78.78,0,0,0,.39-.66V72.16a.28.28,0,0,1,.17-.24c.29-.09.45-.23.48-.41a.57.57,0,0,0-.28-.48,6.32,6.32,0,0,0-1.87-1,.4.4,0,0,0-.46.17c-.2.22-.43.46-.68.71H194.76a8.2,8.2,0,0,0-1.9-.83.26.26,0,0,0-.18,0S192.65,70.18,192.64,70.26Zm12.24,9.83v5.43H198V80.09Zm-9.08-1.21v7.19q0,.39.15.51a1.07,1.07,0,0,0,.67.19,1.82,1.82,0,0,0,1-.29,1.37,1.37,0,0,0,.27-.31h7a.54.54,0,0,0,.19.46,1,1,0,0,0,.62.19,1.81,1.81,0,0,0,.86-.21.77.77,0,0,0,.48-.69V80.59a.29.29,0,0,1,.2-.29c.25-.1.4-.22.44-.38a.52.52,0,0,0-.23-.43,7.39,7.39,0,0,0-1.85-.94.33.33,0,0,0-.36,0,6.07,6.07,0,0,1-.77.85h-6.68a9.29,9.29,0,0,0-1.79-.75c-.14,0-.2,0-.19.07Zm6.54,4.89h-1.79a.13.13,0,0,0,0-.08V81.84h1.77Zm-2,.48h4.07c.05,0,.08-.06.08-.19a.5.5,0,0,0-.08-.29l-.21-.29V82.42c0-.1,0-.16.08-.19.22,0,.34-.16.35-.31a.33.33,0,0,0-.16-.29,7.22,7.22,0,0,0-1.44-1,.19.19,0,0,0-.19,0,2.86,2.86,0,0,0-.54.56.3.3,0,0,1-.21.15h-1.48a10.17,10.17,0,0,0-1.81-.79c-.12,0-.18,0-.17.06V84a.62.62,0,0,0,.13.48,1.14,1.14,0,0,0,.58.17,1.89,1.89,0,0,0,.88-.25Z" transform="translate(-4.19 -4.56)"/><path class="cls-3" d="M229.5,83.42v2h-9.26v-2m9.26,2.67v2.1h-9.26v-2.1Zm-.42-3.32h-8.86a9.19,9.19,0,0,0-1.94-.83c-.14,0-.2,0-.19.06v6.81c0,.27,0,.44.15.52a1,1,0,0,0,.66.19,1.83,1.83,0,0,0,1-.29.74.74,0,0,0,.29-.4h9.31a.65.65,0,0,0,.21.54,1,1,0,0,0,.62.19,1.6,1.6,0,0,0,.86-.21.76.76,0,0,0,.48-.68V83.92a.29.29,0,0,1,.21-.29c.24-.1.39-.22.43-.38a.52.52,0,0,0-.23-.43,7.39,7.39,0,0,0-1.85-.94.33.33,0,0,0-.36,0A6.07,6.07,0,0,1,229.08,82.77Zm.26-10.43V74h-3.69V72.34Zm0,2.34v1.51h-3.69V74.68Zm1.3,2.16a.2.2,0,0,0-.12.12q-.53.69-.9,1.23a.81.81,0,0,1-.33.17h-3.64V76.84Zm-15,4.33h18.16a.37.37,0,0,0,.37-.19c0-.12,0-.27-.12-.45a5.34,5.34,0,0,0-1.23-1.48.3.3,0,0,0-.48.08c-.35.46-.64.87-.89,1.23a1.16,1.16,0,0,1-.34.17h-5.47V79H232a.41.41,0,0,0,.38-.19.53.53,0,0,0-.13-.46A5.31,5.31,0,0,0,231,76.88a.15.15,0,0,0-.06,0h.65c.13,0,.21-.11.23-.33s0-.31-.09-.31l-.25-.32v-1.2h2.75a.41.41,0,0,0,.38-.19.53.53,0,0,0-.13-.46,5.49,5.49,0,0,0-1.23-1.48.3.3,0,0,0-.48.09c-.34.45-.64.86-.89,1.22a.83.83,0,0,1-.33.17h-.07V73c0-.13,0-.2.11-.23.26-.06.39-.17.39-.34a.45.45,0,0,0-.18-.35A8.86,8.86,0,0,0,230.17,71a.24.24,0,0,0-.23,0,4.86,4.86,0,0,0-.63.58.52.52,0,0,1-.27.15h-3.39V71c0-.13,0-.19.12-.21.34-.09.5-.23.5-.41s-.14-.27-.41-.38a14.55,14.55,0,0,0-2.23-.39c-.1,0-.15,0-.15.08v2h-5.41l.19.64h5.22V74h-8.2l.21.65h8v1.51H218l.16.65h5.33v1.52h-6.54l.21.65h6.33v1.52h-8Z" transform="translate(-4.19 -4.56)"/><path class="cls-3" d="M244.46,80.34v1.77h-2.69V80.34M244.46,78v1.68h-2.69V78Zm1.65,6.91a6.33,6.33,0,0,0-2.25-1.31c-.18-.08-.3-.09-.36,0s0,.21.09.33a4.39,4.39,0,0,1,.79,1.44,1,1,0,0,0,0,.17,19.09,19.09,0,0,1-2.65.56V82.76h2.69a.73.73,0,0,0,.19.62,1,1,0,0,0,.62.19,1.81,1.81,0,0,0,.86-.21.77.77,0,0,0,.48-.68V78.51a.29.29,0,0,1,.21-.29c.25-.1.39-.23.43-.38s-.06-.28-.23-.44a7.23,7.23,0,0,0-1.85-.93.3.3,0,0,0-.35,0,7,7,0,0,1-.78.85h-2.27a10.27,10.27,0,0,0-1.83-.81,17.9,17.9,0,0,0,1.36-1.38l.16.5h4.06a.43.43,0,0,0,.36-.12.25.25,0,0,0-.09-.29,7,7,0,0,0-1.7-1.42c-.14-.1-.28-.07-.42.08a14.33,14.33,0,0,0-1.06,1,.78.78,0,0,0-.1.08h-1.07a2.11,2.11,0,0,1,.19-.23,16.92,16.92,0,0,0,1.94-3.15,3.8,3.8,0,0,1,.56.57,4.49,4.49,0,0,1,.75,1.18,2.11,2.11,0,0,0,.69.88,1.05,1.05,0,0,0,.93,0,1.25,1.25,0,0,0,.59-.81,1.77,1.77,0,0,0-.17-1.23,2.84,2.84,0,0,0-1.38-1.07,5.24,5.24,0,0,0-1.62-.31,0,0,0,0,1,0,0,.23.23,0,0,1,.21-.23c.26,0,.4-.14.42-.29s-.16-.31-.48-.39a11.41,11.41,0,0,0-2.15-.4c-.09,0-.15.06-.17.17l0,.29a12.54,12.54,0,0,1-1.15,4,14.78,14.78,0,0,1-2,3.19.16.16,0,0,0,0,.19s.08.07.19,0l.85-.58v9c0,.47-.14.75-.42.85l-.14.06c-.1,0-.1.14,0,.38q.38.77.81,1.5.58,1,.87.93c.18,0,.3-.18.36-.56,0-.22.22-.44.62-.67l.84-.51a14.63,14.63,0,0,0,1.62-1.19,3.36,3.36,0,0,1,.42-.36,5.14,5.14,0,0,0,.06.55,1.78,1.78,0,0,0,.27,1.06,1,1,0,0,0,.87.35,1.18,1.18,0,0,0,.86-.52,1.71,1.71,0,0,0,.33-1.21A2.76,2.76,0,0,0,246.11,84.92ZM254,80.78h-3.53V77.34H254v3.33Zm.74,3.56v3.77h-4.27V84.34Zm-6.42-8.06V88.79a.74.74,0,0,0,.17.52.85.85,0,0,0,.62.21,1.77,1.77,0,0,0,1.07-.29.84.84,0,0,0,.25-.48h6.79c.05,0,.09-.07.1-.23a.75.75,0,0,0-.1-.41l-.34-.44V85c0-.12,0-.2.11-.23q.39-.08.39-.33a.42.42,0,0,0-.18-.35A8.92,8.92,0,0,0,255.54,83a.24.24,0,0,0-.23,0,3.82,3.82,0,0,0-.62.59.5.5,0,0,1-.28.14h-4V81.42h6c.06,0,.1-.07.11-.23a.71.71,0,0,0-.11-.41l-.25-.34V78c0-.13,0-.21.11-.23.26-.06.4-.17.4-.34a.45.45,0,0,0-.19-.35A8.86,8.86,0,0,0,254.87,76a.19.19,0,0,0-.23,0,3.37,3.37,0,0,0-.62.58.45.45,0,0,1-.27.14h-3.19a13.7,13.7,0,0,0-1.73-.81,0,0,0,0,1,0,0,2.94,2.94,0,0,0,.34-1.7c0-.17,0-.33-.07-.48h6.27a7.71,7.71,0,0,1-.54,1.89.54.54,0,0,0,0,.31c0,.05.15,0,.32,0a26.47,26.47,0,0,0,2.5-1.6.72.72,0,0,1,.29-.06.49.49,0,0,0,.43-.21.36.36,0,0,0-.12-.42,11.34,11.34,0,0,0-2-1.29.29.29,0,0,0-.31,0,3.9,3.9,0,0,0-.75.58,2.32,2.32,0,0,1-.32.17h-1.73a1.34,1.34,0,0,0,.26-.23,1.77,1.77,0,0,0,.41-1.31,2,2,0,0,0-.77-1,4.8,4.8,0,0,0-1.77-.77c-.21-.1-.34-.11-.39,0s0,.21.08.35a2.32,2.32,0,0,1,.31.86,2.88,2.88,0,0,1,0,.83,1.46,1.46,0,0,0,.37,1.33H249a4.48,4.48,0,0,0-.34-.9c0-.09-.11-.13-.16-.12s-.09.07-.1.17a2.88,2.88,0,0,1-.34,1.22,3,3,0,0,1-.66.74,1.38,1.38,0,0,0-.65.93A1.13,1.13,0,0,0,247,76a1,1,0,0,0,.9.35A2.12,2.12,0,0,0,248.29,76.28Z" transform="translate(-4.19 -4.56)"/><path class="cls-5" d="M192.49,106.8l-.19.27c-.9,1.29-1.5,2.22-1.8,2.77-.47.87-.73,1.37-.79,1.52-.18.4-.42.6-.71.6a.76.76,0,0,1-.53-.2.5.5,0,0,1-.2-.37q0-.77,2.87-4.89c-.35-.18-.52-.36-.52-.54a.41.41,0,0,1,.26-.36,1,1,0,0,1,.48-.13,2,2,0,0,1,.48.07,30.48,30.48,0,0,0,2.47-3.56c-.21.08-.49.2-.83.36a1.33,1.33,0,0,1-.5.12.48.48,0,0,1-.4-.17.37.37,0,0,1-.11-.24c0-.28.35-.59,1.05-.91s1.09-.48,1.57-.65a1.17,1.17,0,0,0,.14-.3,1.1,1.1,0,0,1,.28-.46.73.73,0,0,1,.44-.11c.4,0,.61.15.61.46.59-.12,1.12-.21,1.58-.27a9.28,9.28,0,0,1,1.17-.09,3.42,3.42,0,0,1,2.12.67,1.78,1.78,0,0,1,.82,1.42,3.75,3.75,0,0,1-1.63,2.72,10.22,10.22,0,0,1-3.48,1.8,12,12,0,0,1-3.58.55A9.82,9.82,0,0,1,192.49,106.8Zm3.63-5.5a18.69,18.69,0,0,1-1.4,2.29c-.8,1.13-1.31,1.87-1.55,2.22a9.48,9.48,0,0,0,1,.09,9.14,9.14,0,0,0,3.45-.83,8.21,8.21,0,0,0,3-2,2.09,2.09,0,0,0,.66-1.3.81.81,0,0,0-.5-.77,3.41,3.41,0,0,0-1.51-.26,9.21,9.21,0,0,0-1.55.14A10.63,10.63,0,0,0,196.12,101.3Z" transform="translate(-4.19 -4.56)"/><path class="cls-5" d="M207.33,104.44l.52-.07a35.93,35.93,0,0,1,4-.37c.54,0,.82.15.82.45a.38.38,0,0,1-.33.39,2.83,2.83,0,0,1-.75.09,30.39,30.39,0,0,0-5.11.55,22.33,22.33,0,0,0-2,2.66,13.74,13.74,0,0,0-1.19,2.1l.58-.14c1.28-.31,2.22-.5,2.83-.59a16.7,16.7,0,0,1,2.27-.16,3.81,3.81,0,0,1,1,.11.39.39,0,0,1,.29.38c0,.19-.12.31-.36.37a5,5,0,0,1-.8.05,18.51,18.51,0,0,0-6.12,1.17,1.76,1.76,0,0,1-.6.13.91.91,0,0,1-.65-.26.6.6,0,0,1-.24-.44,7.43,7.43,0,0,1,.81-1.66,34.26,34.26,0,0,1,3.36-4.75c.42-.53,1.23-1.41,2.41-2.64l.78-.85c-.35-.06-.52-.22-.52-.48s.14-.33.42-.42a14.93,14.93,0,0,1,2.59-.43,47.86,47.86,0,0,1,4.86-.3c.75,0,1.13.14,1.13.41s-.13.36-.39.49a1.39,1.39,0,0,1-.62.1h-.73c-.62,0-1.52,0-2.69.13a22.15,22.15,0,0,0-2.64.35.36.36,0,0,1,.13.21c0,.1-.2.34-.61.71l-.62.66A24.18,24.18,0,0,0,207.33,104.44Z" transform="translate(-4.19 -4.56)"/><path class="cls-5" d="M221.81,109.77a26.88,26.88,0,0,1,2.54-4.24q1.16-1.57,3.1-4a17.51,17.51,0,0,1,1.89-2.1,1.51,1.51,0,0,1,.93-.34c.28,0,.42.08.42.25a.61.61,0,0,1-.18.35c-.12.14-.47.55-1.08,1.22a46.13,46.13,0,0,0-4.37,5.57,36.38,36.38,0,0,0-2.14,3.83,3,3,0,0,1-.71,1,1.8,1.8,0,0,1-1.16.48.63.63,0,0,1-.67-.53,3.5,3.5,0,0,1-.07-.83,21.72,21.72,0,0,1,.61-4.78A26.6,26.6,0,0,1,222,102a26.92,26.92,0,0,0-3.72,4,22.24,22.24,0,0,0-2.94,4.5,5,5,0,0,1-.58,1.07,1.06,1.06,0,0,1-.87.4.54.54,0,0,1-.37-.13.28.28,0,0,1-.13-.21,6.13,6.13,0,0,1,.84-1.81,34.71,34.71,0,0,1,3.62-4.89,50.07,50.07,0,0,1,3.58-3.77,9.05,9.05,0,0,1,1.46-1.24,1.79,1.79,0,0,1,.83-.25.73.73,0,0,1,.3.07.29.29,0,0,1,.18.25.78.78,0,0,1-.13.4,19.39,19.39,0,0,0-1.28,3.07,17.66,17.66,0,0,0-1,5.38C221.77,109,221.78,109.35,221.81,109.77Z" transform="translate(-4.19 -4.56)"/><path class="cls-5" d="M235.27,109.73c-.58.29-1.06.5-1.41.64a5.92,5.92,0,0,1-2.11.48,2.34,2.34,0,0,1-1.74-.71,1.65,1.65,0,0,1-.49-1.18c0-1.24.77-2.68,2.33-4.33a22.41,22.41,0,0,1,5-3.92,8.38,8.38,0,0,1,4-1.36,1.92,1.92,0,0,1,1.37.5,1.17,1.17,0,0,1,.4.89c0,1.05-.73,2.13-2.2,3.26a5.14,5.14,0,0,1-2.56,1.28.81.81,0,0,1-.39-.1.38.38,0,0,1-.2-.3c0-.15.19-.33.57-.55a12.61,12.61,0,0,0,2.38-1.68q1.44-1.32,1.44-2.1a.37.37,0,0,0-.22-.33,1,1,0,0,0-.5-.12,4.65,4.65,0,0,0-1.85.56,20.76,20.76,0,0,0-4.75,3.31,16.09,16.09,0,0,0-2.53,2.85,4,4,0,0,0-.88,2.1.89.89,0,0,0,.29.62,1.49,1.49,0,0,0,1.05.38,5.28,5.28,0,0,0,2.27-.67,22,22,0,0,0,2.42-1.36,1.83,1.83,0,0,1,.92-.43.55.55,0,0,1,.36.11.48.48,0,0,1,.18.38c0,.17-.15.39-.44.67a17.57,17.57,0,0,0-1.4,1.54,22,22,0,0,0-2,2.79,14.23,14.23,0,0,0-1,1.79,1.36,1.36,0,0,1-.32.57.86.86,0,0,1-.6.18.77.77,0,0,1-.52-.16A.46.46,0,0,1,232,115a6.15,6.15,0,0,1,1.28-2.65c.14-.2.58-.78,1.31-1.73C234.76,110.42,235,110.13,235.27,109.73Z" transform="translate(-4.19 -4.56)"/><path class="cls-5" d="M251.1,105.56a47,47,0,0,0-5.54,1.17l-.2.3a14.14,14.14,0,0,0-2.41,4.53.59.59,0,0,1-.59.5.88.88,0,0,1-.6-.24.52.52,0,0,1-.2-.38,3.89,3.89,0,0,1,.32-1,10.78,10.78,0,0,1,.68-1.4q.12-.22.81-1.32c.12-.17.23-.36.34-.55l-.75.22a1.42,1.42,0,0,1-.38.06c-.27,0-.4-.14-.4-.42a.46.46,0,0,1,.34-.43,7.31,7.31,0,0,1,.92-.28l1.1-.29c.17-.21.5-.65,1-1.3.08-.12.37-.46.86-1a31.54,31.54,0,0,0,2.75-3.51,6.94,6.94,0,0,1,.73-1.07.88.88,0,0,1,.62-.24c.41,0,.61.14.61.42,0,.63-1.23,2.33-3.71,5.11a7.13,7.13,0,0,0-.89,1.19l.65-.13c1.76-.36,3.36-.67,4.81-.93q1.48-1.9,3.65-4.23a5.61,5.61,0,0,0,.44-.52.87.87,0,0,1,.67-.39.71.71,0,0,1,.49.18.42.42,0,0,1,.15.31,1.69,1.69,0,0,1-.5.93c-.08.1-.43.48-1.06,1.15a29.77,29.77,0,0,0-2.09,2.39l.57,0c.68,0,1,.12,1,.35s-.11.29-.32.43a1,1,0,0,1-.55.16h-.5a9,9,0,0,0-.94.08,20,20,0,0,0-3.59,6c-.14.38-.35.57-.65.57a.92.92,0,0,1-.63-.29.66.66,0,0,1-.2-.45Q247.92,110.26,251.1,105.56Z" transform="translate(-4.19 -4.56)"/><path class="cls-5" d="M268.29,103.94q-1.17,1-4.86,4.43a33,33,0,0,1-2.89,2.45,4.67,4.67,0,0,1-2.55,1.1,1.41,1.41,0,0,1-1.14-.53,1.33,1.33,0,0,1-.29-.88q0-1.64,2.07-4.49a29.16,29.16,0,0,1,5.28-5.35,4.13,4.13,0,0,1,1.88-1.08.6.6,0,0,1,.33.1.39.39,0,0,1,.24.33c0,.18-.21.41-.62.7-.1.06-.77.61-2,1.63a22.79,22.79,0,0,0-4.24,4.57,12.07,12.07,0,0,0-1.22,2.18,3.26,3.26,0,0,0-.31,1.14.47.47,0,0,0,.12.32.53.53,0,0,0,.43.17,2.77,2.77,0,0,0,1.45-.74q2.38-1.9,7.79-6.82c.91-.83,1.93-1.7,3.08-2.6a6.16,6.16,0,0,1,.74-.53,1.19,1.19,0,0,1,.63-.17.71.71,0,0,1,.43.13.34.34,0,0,1,.17.27c0,.15-.2.43-.59.83a34.83,34.83,0,0,0-4.64,5.87,10.58,10.58,0,0,0-1.75,4.09,2,2,0,0,1-.09.59.43.43,0,0,1-.38.16,1,1,0,0,1-.68-.25.57.57,0,0,1-.21-.45,5.75,5.75,0,0,1,.45-1.8,15.46,15.46,0,0,1,1.82-3.3Z" transform="translate(-4.19 -4.56)"/><path class="cls-5" d="M291.62,99.52A1.91,1.91,0,0,1,293,100a1.07,1.07,0,0,1,.37.83,3.49,3.49,0,0,1-.84,2,8.25,8.25,0,0,1-1.84,1.73,2.36,2.36,0,0,1-1.14.5.85.85,0,0,1-.51-.19.41.41,0,0,1-.17-.31c0-.21.27-.45.79-.72a7,7,0,0,0,1.78-1.26,2.7,2.7,0,0,0,1-1.68.51.51,0,0,0-.17-.41.86.86,0,0,0-.53-.14,4.72,4.72,0,0,0-2,.72,19.25,19.25,0,0,0-3.15,2.21,16,16,0,0,0-3.22,3.5,6,6,0,0,0-1.14,3,1.3,1.3,0,0,0,.51,1,2,2,0,0,0,1.36.48,6.67,6.67,0,0,0,3.53-1.52,15.52,15.52,0,0,0,1.54-1.33,6.68,6.68,0,0,0,.76-.79.56.56,0,0,1,.46-.27c.19,0,.28.07.28.19,0,.27-.48.88-1.45,1.82a10.82,10.82,0,0,1-2.66,1.93,6.78,6.78,0,0,1-3.08.84,3,3,0,0,1-2.35-1,2,2,0,0,1-.53-1.37q0-1.95,2.64-4.91a21.67,21.67,0,0,1,4.76-4.07A7.51,7.51,0,0,1,291.62,99.52Z" transform="translate(-4.19 -4.56)"/><path class="cls-5" d="M301.86,100.64a9.94,9.94,0,0,0-2.28.63,1.37,1.37,0,0,1-.46.1.65.65,0,0,1-.36-.12.4.4,0,0,1-.18-.33c0-.14.11-.27.32-.38a9.14,9.14,0,0,1,2-.66,11.67,11.67,0,0,1,2.65-.34,4.11,4.11,0,0,1,2.55.75,2,2,0,0,1,.89,1.65,6.82,6.82,0,0,1-1.89,3.94,23.19,23.19,0,0,1-5,4.45,8.16,8.16,0,0,1-4.28,1.67,2.28,2.28,0,0,1-1.7-.67,1.7,1.7,0,0,1-.49-1.21,6.88,6.88,0,0,1,1.68-3.91A22.93,22.93,0,0,1,301.86,100.64Zm.67-.1c.15.12.22.23.22.32s-.23.3-.7.66a36.92,36.92,0,0,0-4.22,3.54,12.15,12.15,0,0,0-2.18,2.93,4.21,4.21,0,0,0-.53,1.88,1,1,0,0,0,.23.68,1.12,1.12,0,0,0,.87.33,6.36,6.36,0,0,0,3.23-1.41,21.52,21.52,0,0,0,4.19-3.7,6.34,6.34,0,0,0,1.82-3.72,1.37,1.37,0,0,0-.67-1.18,2.46,2.46,0,0,0-1.41-.35Z" transform="translate(-4.19 -4.56)"/><path class="cls-5" d="M319.64,103.94q-1.15,1-4.86,4.43a33,33,0,0,1-2.89,2.45,4.65,4.65,0,0,1-2.54,1.1,1.38,1.38,0,0,1-1.14-.53,1.34,1.34,0,0,1-.3-.88q0-1.64,2.07-4.49a29.16,29.16,0,0,1,5.28-5.35,4.18,4.18,0,0,1,1.88-1.08.63.63,0,0,1,.34.1.39.39,0,0,1,.23.33c0,.18-.21.41-.62.7-.1.06-.77.61-2,1.63a22.51,22.51,0,0,0-4.24,4.57,11.49,11.49,0,0,0-1.22,2.18,3.05,3.05,0,0,0-.31,1.14.52.52,0,0,0,.11.32.54.54,0,0,0,.43.17,2.74,2.74,0,0,0,1.45-.74q2.38-1.9,7.8-6.82c.9-.83,1.93-1.7,3.07-2.6a7.08,7.08,0,0,1,.74-.53,1.19,1.19,0,0,1,.63-.17.69.69,0,0,1,.43.13.34.34,0,0,1,.17.27c0,.15-.19.43-.58.83a34.32,34.32,0,0,0-4.64,5.87,10.65,10.65,0,0,0-1.76,4.09,1.45,1.45,0,0,1-.09.59.42.42,0,0,1-.37.16,1,1,0,0,1-.69-.25.57.57,0,0,1-.21-.45,5.55,5.55,0,0,1,.46-1.8,15.37,15.37,0,0,1,1.81-3.3Z" transform="translate(-4.19 -4.56)"/><path class="cls-5" d="M331,109.77a28.49,28.49,0,0,1,2.54-4.24c.77-1,1.81-2.37,3.1-4a16.4,16.4,0,0,1,1.9-2.1,1.51,1.51,0,0,1,.93-.34c.28,0,.41.08.41.25a.61.61,0,0,1-.18.35c-.11.14-.47.55-1.07,1.22a45.13,45.13,0,0,0-4.37,5.57,34.67,34.67,0,0,0-2.14,3.83,3,3,0,0,1-.72,1,1.78,1.78,0,0,1-1.15.48.63.63,0,0,1-.67-.53,3,3,0,0,1-.07-.83,21.14,21.14,0,0,1,.61-4.78,26.77,26.77,0,0,1,1.1-3.7,26.92,26.92,0,0,0-3.72,4,22.59,22.59,0,0,0-2.93,4.5,5.5,5.5,0,0,1-.58,1.07,1.09,1.09,0,0,1-.87.4.57.57,0,0,1-.38-.13.31.31,0,0,1-.13-.21,6,6,0,0,1,.85-1.81,34.49,34.49,0,0,1,3.61-4.89q1.51-1.77,3.58-3.77a9.45,9.45,0,0,1,1.47-1.24,1.75,1.75,0,0,1,.83-.25.73.73,0,0,1,.3.07.29.29,0,0,1,.18.25.89.89,0,0,1-.13.4,19.29,19.29,0,0,0-1.29,3.07,17.66,17.66,0,0,0-1.05,5.38C330.93,109,331,109.35,331,109.77Z" transform="translate(-4.19 -4.56)"/><path class="cls-5" d="M348.17,100.85c-1.72.19-3.33.42-4.81.71a3.11,3.11,0,0,1-.72.12.72.72,0,0,1-.51-.19.34.34,0,0,1-.13-.25q0-.39.81-.57c1.43-.3,3.12-.58,5.07-.83a57.52,57.52,0,0,1,7-.46,7.92,7.92,0,0,1,1.53.1c.25.06.37.18.37.34s-.3.45-.9.5-1.3.06-2.34.08a35.67,35.67,0,0,0-4.28.27c.21.06.32.15.32.28s-.14.34-.41.62a44.39,44.39,0,0,0-4.71,5.69,23,23,0,0,0-2.5,4.29c-.13.37-.33.56-.63.56a.87.87,0,0,1-.67-.29.54.54,0,0,1-.18-.39c0-.55.75-1.9,2.27-4q1.46-2.06,2.68-3.48l2.37-2.67Z" transform="translate(-4.19 -4.56)"/><path class="cls-5" d="M360.81,105.23c-.68.46-1.51,1-2.49,1.6a14,14,0,0,1-1.48.83,3.05,3.05,0,0,1-1.41.34,1.31,1.31,0,0,1-1.13-.54,1,1,0,0,1-.2-.62,5.06,5.06,0,0,1,1.32-2.82,14.53,14.53,0,0,1,3.25-2.92,6.71,6.71,0,0,1,2.92-1.41.55.55,0,0,1,.36.11.31.31,0,0,1,.15.26.48.48,0,0,1-.26.41,4.33,4.33,0,0,1-.61.3,12,12,0,0,0-1.81,1,11.54,11.54,0,0,0-2.72,2.54,4.71,4.71,0,0,0-1.11,2.12.38.38,0,0,0,.11.25.58.58,0,0,0,.42.15,4.28,4.28,0,0,0,1.68-.66,18.79,18.79,0,0,0,2.31-1.43,49.49,49.49,0,0,0,3.85-3.13c.82-.77,1.52-1.39,2.08-1.85a2.07,2.07,0,0,1,1.1-.59.6.6,0,0,1,.44.18.45.45,0,0,1,.14.33,1.16,1.16,0,0,1-.49.76q-3.51,3.21-4.65,4.37a26.15,26.15,0,0,0-3,3.7,24.72,24.72,0,0,0-1.78,2.91,2.12,2.12,0,0,1-.55.86,1,1,0,0,1-.59.18c-.4,0-.61-.13-.61-.4a5.06,5.06,0,0,1,.82-1.81,22,22,0,0,1,2.35-3.2C360,106.18,360.53,105.57,360.81,105.23Z" transform="translate(-4.19 -4.56)"/><path class="cls-6" d="M191.88,106.33l-.18.27c-.9,1.3-1.5,2.22-1.8,2.77-.47.87-.73,1.37-.79,1.52q-.27.6-.72.6a.75.75,0,0,1-.53-.2.47.47,0,0,1-.19-.37q0-.77,2.86-4.89c-.34-.18-.52-.36-.52-.54a.43.43,0,0,1,.26-.36,1,1,0,0,1,.48-.13,2.75,2.75,0,0,1,.48.07,30.21,30.21,0,0,0,2.48-3.56c-.22.08-.49.2-.83.36a1.34,1.34,0,0,1-.51.12.51.51,0,0,1-.4-.17.34.34,0,0,1-.1-.24c0-.28.35-.59,1-.91s1.08-.47,1.57-.65a1.7,1.7,0,0,0,.14-.3,1.31,1.31,0,0,1,.27-.46.77.77,0,0,1,.44-.11c.41,0,.61.15.61.47q.9-.18,1.59-.27a9,9,0,0,1,1.16-.09,3.42,3.42,0,0,1,2.13.66,1.8,1.8,0,0,1,.82,1.42,3.74,3.74,0,0,1-1.64,2.72,10.08,10.08,0,0,1-3.47,1.8,12.07,12.07,0,0,1-3.58.55A9.8,9.8,0,0,1,191.88,106.33Zm3.63-5.5a16.46,16.46,0,0,1-1.4,2.29c-.79,1.13-1.31,1.87-1.54,2.22a7,7,0,0,0,4.45-.74,8.3,8.3,0,0,0,3-2,2.09,2.09,0,0,0,.66-1.3.83.83,0,0,0-.5-.77,3.41,3.41,0,0,0-1.51-.26,9.11,9.11,0,0,0-1.55.14A11.09,11.09,0,0,0,195.51,100.83Z" transform="translate(-4.19 -4.56)"/><path class="cls-6" d="M206.72,104l.52-.07a35.85,35.85,0,0,1,4-.37c.54,0,.81.15.81.46a.37.37,0,0,1-.32.38,2.9,2.9,0,0,1-.75.09,30.26,30.26,0,0,0-5.11.55,22.33,22.33,0,0,0-2,2.66,14.79,14.79,0,0,0-1.2,2.1l.59-.14c1.28-.3,2.22-.5,2.83-.59a16.66,16.66,0,0,1,2.26-.16,3.3,3.3,0,0,1,1,.12.37.37,0,0,1,.3.37c0,.19-.12.31-.36.37a5.17,5.17,0,0,1-.81.05,18.51,18.51,0,0,0-6.12,1.17,1.71,1.71,0,0,1-.59.14.91.91,0,0,1-.65-.27.58.58,0,0,1-.25-.44,7.23,7.23,0,0,1,.82-1.66,34.26,34.26,0,0,1,3.36-4.75c.42-.53,1.22-1.41,2.41-2.64l.78-.85c-.35-.06-.52-.22-.52-.48s.14-.33.41-.42a14.41,14.41,0,0,1,2.6-.42,45.44,45.44,0,0,1,4.86-.31c.75,0,1.13.14,1.13.41s-.13.36-.39.49a1.39,1.39,0,0,1-.62.1H215c-.62,0-1.52.05-2.7.14a20,20,0,0,0-2.63.34.36.36,0,0,1,.13.21c0,.11-.2.34-.61.71l-.62.66A26.77,26.77,0,0,0,206.72,104Z" transform="translate(-4.19 -4.56)"/><path class="cls-6" d="M221.2,109.3a28.49,28.49,0,0,1,2.54-4.24c.77-1,1.81-2.37,3.1-4a16.4,16.4,0,0,1,1.9-2.1,1.51,1.51,0,0,1,.93-.34c.28,0,.41.09.41.25a.61.61,0,0,1-.18.35c-.11.14-.47.55-1.07,1.22a45.89,45.89,0,0,0-4.37,5.57,34.67,34.67,0,0,0-2.14,3.83,3,3,0,0,1-.72,1,1.79,1.79,0,0,1-1.15.49.64.64,0,0,1-.67-.54,3,3,0,0,1-.07-.83,21.14,21.14,0,0,1,.61-4.78,26.77,26.77,0,0,1,1.1-3.7,26.92,26.92,0,0,0-3.72,4,22.59,22.59,0,0,0-2.93,4.5,6.09,6.09,0,0,1-.58,1.08,1.11,1.11,0,0,1-.87.39.62.62,0,0,1-.38-.12.35.35,0,0,1-.13-.22,6,6,0,0,1,.85-1.81,35.07,35.07,0,0,1,3.61-4.89q1.51-1.77,3.58-3.77a9.45,9.45,0,0,1,1.47-1.24,1.75,1.75,0,0,1,.83-.25.73.73,0,0,1,.3.07.29.29,0,0,1,.18.25.89.89,0,0,1-.13.4,19.06,19.06,0,0,0-1.29,3.08,17.55,17.55,0,0,0-1.05,5.37C221.16,108.57,221.18,108.88,221.2,109.3Z" transform="translate(-4.19 -4.56)"/><path class="cls-6" d="M234.67,109.27q-.88.42-1.41.63a6,6,0,0,1-2.12.48,2.26,2.26,0,0,1-1.73-.71,1.64,1.64,0,0,1-.5-1.18q0-1.86,2.34-4.32a22,22,0,0,1,5-3.93,8.35,8.35,0,0,1,4-1.35,2,2,0,0,1,1.38.49,1.21,1.21,0,0,1,.4.89c0,1-.74,2.13-2.21,3.26a5,5,0,0,1-2.55,1.29.82.82,0,0,1-.39-.11.37.37,0,0,1-.21-.3c0-.15.19-.33.57-.55a12.39,12.39,0,0,0,2.39-1.68q1.44-1.32,1.44-2.1a.38.38,0,0,0-.22-.33,1,1,0,0,0-.51-.12,4.61,4.61,0,0,0-1.84.56,20.81,20.81,0,0,0-4.76,3.31,16.92,16.92,0,0,0-2.53,2.85,4.16,4.16,0,0,0-.88,2.1.85.85,0,0,0,.3.62,1.45,1.45,0,0,0,1,.39,5.36,5.36,0,0,0,2.27-.68,20.11,20.11,0,0,0,2.41-1.36,1.91,1.91,0,0,1,.92-.43.62.62,0,0,1,.37.11.49.49,0,0,1,.18.38c0,.17-.15.39-.44.67a17.46,17.46,0,0,0-1.4,1.54,22,22,0,0,0-2,2.79,11.86,11.86,0,0,0-1,1.8,1.37,1.37,0,0,1-.32.56.86.86,0,0,1-.6.18.75.75,0,0,1-.52-.16.45.45,0,0,1-.15-.34,6.08,6.08,0,0,1,1.28-2.65c.14-.2.57-.77,1.31-1.73Z" transform="translate(-4.19 -4.56)"/><path class="cls-6" d="M250.5,105.09a45.14,45.14,0,0,0-5.54,1.18l-.21.29a14.55,14.55,0,0,0-2.41,4.53.57.57,0,0,1-.58.5.88.88,0,0,1-.6-.23A.51.51,0,0,1,241,111a3.68,3.68,0,0,1,.33-1,10.81,10.81,0,0,1,.67-1.4c.09-.15.36-.59.82-1.32l.34-.55-.76.22a1.29,1.29,0,0,1-.37.06c-.27,0-.4-.14-.4-.42a.45.45,0,0,1,.33-.42,5.25,5.25,0,0,1,.92-.28l1.11-.3c.17-.21.5-.64,1-1.3.09-.12.38-.46.87-1a31.54,31.54,0,0,0,2.75-3.51,6.94,6.94,0,0,1,.73-1.07.88.88,0,0,1,.62-.24c.4,0,.61.14.61.42q0,.94-3.71,5.11a6.74,6.74,0,0,0-.9,1.19l.65-.13,4.81-.93q1.5-1.9,3.66-4.23a5.61,5.61,0,0,0,.44-.52.89.89,0,0,1,.66-.38.71.71,0,0,1,.5.17.42.42,0,0,1,.15.31,1.76,1.76,0,0,1-.5.93c-.08.1-.44.48-1.07,1.15-1.1,1.19-1.8,2-2.09,2.39l.57,0c.69,0,1,.12,1,.36s-.11.28-.33.42a.93.93,0,0,1-.54.16h-.51a9.08,9.08,0,0,0-.93.08,20.11,20.11,0,0,0-3.59,6c-.14.38-.36.57-.65.57a.9.9,0,0,1-.63-.29.66.66,0,0,1-.2-.44Q247.32,109.78,250.5,105.09Z" transform="translate(-4.19 -4.56)"/><path class="cls-6" d="M267.69,103.47q-1.17,1-4.87,4.44a31.34,31.34,0,0,1-2.89,2.44,4.68,4.68,0,0,1-2.54,1.11,1.39,1.39,0,0,1-1.14-.54,1.34,1.34,0,0,1-.3-.88q0-1.64,2.08-4.49a29.09,29.09,0,0,1,5.27-5.35,4.18,4.18,0,0,1,1.88-1.08.61.61,0,0,1,.34.1.38.38,0,0,1,.23.33c0,.18-.2.41-.62.7-.09.06-.77.61-2,1.63a22.51,22.51,0,0,0-4.24,4.57,11.49,11.49,0,0,0-1.22,2.18,3.05,3.05,0,0,0-.31,1.14.52.52,0,0,0,.12.33.54.54,0,0,0,.42.17,2.83,2.83,0,0,0,1.46-.75q2.39-1.9,7.79-6.82c.91-.83,1.93-1.7,3.07-2.6a9,9,0,0,1,.74-.53,1.2,1.2,0,0,1,.64-.17.73.73,0,0,1,.43.13.33.33,0,0,1,.16.28c0,.15-.19.42-.58.82A34.32,34.32,0,0,0,267,106.5a10.42,10.42,0,0,0-1.75,4.09,2,2,0,0,1-.09.59.44.44,0,0,1-.38.16,1,1,0,0,1-.69-.24.62.62,0,0,1-.2-.45,5.73,5.73,0,0,1,.45-1.81,15.53,15.53,0,0,1,1.81-3.29Z" transform="translate(-4.19 -4.56)"/><path class="cls-6" d="M291,99.05a1.87,1.87,0,0,1,1.33.43,1.1,1.1,0,0,1,.38.83,3.46,3.46,0,0,1-.84,2A8.3,8.3,0,0,1,290,104a2.29,2.29,0,0,1-1.14.5.8.8,0,0,1-.5-.19.37.37,0,0,1-.17-.31c0-.21.26-.45.79-.72a6.66,6.66,0,0,0,1.78-1.26,2.75,2.75,0,0,0,1-1.68.48.48,0,0,0-.18-.41.83.83,0,0,0-.52-.14,4.67,4.67,0,0,0-2,.72,19.3,19.3,0,0,0-3.16,2.21,16.1,16.1,0,0,0-3.21,3.5,6,6,0,0,0-1.14,3,1.3,1.3,0,0,0,.5,1,2,2,0,0,0,1.37.48,6.65,6.65,0,0,0,3.52-1.52,14.41,14.41,0,0,0,1.55-1.33,7.67,7.67,0,0,0,.76-.79.54.54,0,0,1,.45-.26c.19,0,.29.06.29.19s-.48.87-1.45,1.82a11,11,0,0,1-2.66,1.92,6.79,6.79,0,0,1-3.09.84,2.94,2.94,0,0,1-2.34-.94,2,2,0,0,1-.54-1.38c0-1.3.89-2.94,2.65-4.91a21.45,21.45,0,0,1,4.76-4.07A7.48,7.48,0,0,1,291,99.05Z" transform="translate(-4.19 -4.56)"/><path class="cls-6" d="M301.26,100.17a10.14,10.14,0,0,0-2.29.63,1.37,1.37,0,0,1-.45.1.65.65,0,0,1-.36-.12.41.41,0,0,1-.19-.33c0-.14.11-.27.33-.37a8.6,8.6,0,0,1,2-.67,11.62,11.62,0,0,1,2.64-.33,4.11,4.11,0,0,1,2.56.74,2,2,0,0,1,.89,1.65,6.79,6.79,0,0,1-1.89,3.94,23.16,23.16,0,0,1-5,4.45,8.16,8.16,0,0,1-4.28,1.67,2.24,2.24,0,0,1-1.7-.67,1.7,1.7,0,0,1-.49-1.21,6.88,6.88,0,0,1,1.68-3.91A22.93,22.93,0,0,1,301.26,100.17Zm.67-.09c.15.12.22.22.22.31s-.23.3-.7.66a38.12,38.12,0,0,0-4.23,3.54,12.42,12.42,0,0,0-2.18,2.93,4.39,4.39,0,0,0-.53,1.88,1,1,0,0,0,.24.68,1.09,1.09,0,0,0,.87.33,6.33,6.33,0,0,0,3.22-1.41,20.92,20.92,0,0,0,4.19-3.7,6.31,6.31,0,0,0,1.83-3.72,1.38,1.38,0,0,0-.67-1.18,2.55,2.55,0,0,0-1.42-.35Z" transform="translate(-4.19 -4.56)"/><path class="cls-6" d="M319,103.47q-1.17,1-4.86,4.44a32.72,32.72,0,0,1-2.89,2.44,4.68,4.68,0,0,1-2.54,1.11,1.43,1.43,0,0,1-1.15-.54,1.39,1.39,0,0,1-.29-.88q0-1.64,2.07-4.49a29.16,29.16,0,0,1,5.28-5.35,4.13,4.13,0,0,1,1.88-1.08.66.66,0,0,1,.34.1.39.39,0,0,1,.23.33c0,.18-.21.41-.62.7-.1.06-.77.61-2,1.63a22.79,22.79,0,0,0-4.24,4.57,12.07,12.07,0,0,0-1.22,2.18,3.26,3.26,0,0,0-.31,1.14.52.52,0,0,0,.12.33.56.56,0,0,0,.43.17,2.78,2.78,0,0,0,1.45-.75q2.38-1.9,7.79-6.82c.91-.83,1.94-1.7,3.08-2.6a7.56,7.56,0,0,1,.74-.53,1.19,1.19,0,0,1,.63-.17.69.69,0,0,1,.43.13.35.35,0,0,1,.17.28c0,.15-.2.42-.59.82a34.83,34.83,0,0,0-4.64,5.87,10.58,10.58,0,0,0-1.75,4.09,2,2,0,0,1-.09.59.43.43,0,0,1-.38.16,1,1,0,0,1-.68-.24.6.6,0,0,1-.21-.45,5.73,5.73,0,0,1,.45-1.81,15.62,15.62,0,0,1,1.82-3.29Z" transform="translate(-4.19 -4.56)"/><path class="cls-6" d="M330.37,109.3a27.66,27.66,0,0,1,2.54-4.24q1.15-1.57,3.1-4A17.51,17.51,0,0,1,337.9,99a1.55,1.55,0,0,1,.94-.34c.27,0,.41.09.41.25a.61.61,0,0,1-.18.35c-.11.14-.47.55-1.08,1.22a48,48,0,0,0-4.37,5.57,36.38,36.38,0,0,0-2.14,3.83,2.89,2.89,0,0,1-.71,1,1.79,1.79,0,0,1-1.15.49.65.65,0,0,1-.68-.54,3.68,3.68,0,0,1-.06-.83,21.14,21.14,0,0,1,.61-4.78,26.77,26.77,0,0,1,1.1-3.7,26.92,26.92,0,0,0-3.72,4,22.15,22.15,0,0,0-2.93,4.5,5.89,5.89,0,0,1-.59,1.08,1.08,1.08,0,0,1-.86.39.6.6,0,0,1-.38-.12.31.31,0,0,1-.13-.22,6.13,6.13,0,0,1,.84-1.81,35.3,35.3,0,0,1,3.62-4.89c1-1.18,2.2-2.44,3.58-3.77a9.52,9.52,0,0,1,1.46-1.24,1.82,1.82,0,0,1,.83-.25.66.66,0,0,1,.3.07.29.29,0,0,1,.18.25.78.78,0,0,1-.13.4,19.16,19.16,0,0,0-1.28,3.08,17.55,17.55,0,0,0-1.05,5.37C330.33,108.57,330.34,108.88,330.37,109.3Z" transform="translate(-4.19 -4.56)"/><path class="cls-6" d="M347.57,100.38c-1.73.19-3.33.43-4.81.71a3.1,3.1,0,0,1-.73.12.69.69,0,0,1-.5-.19.3.3,0,0,1-.13-.25c0-.26.27-.45.8-.57,1.44-.3,3.13-.57,5.07-.83a57.68,57.68,0,0,1,7-.46,8,8,0,0,1,1.53.1c.24.06.36.18.36.34s-.29.45-.89.5-1.3.06-2.35.08a35.84,35.84,0,0,0-4.28.27c.22.06.33.15.33.28s-.14.34-.42.62a45.18,45.18,0,0,0-4.7,5.69,23.17,23.17,0,0,0-2.51,4.29c-.12.38-.33.57-.62.57a.88.88,0,0,1-.67-.29.56.56,0,0,1-.19-.4q0-.83,2.27-4,1.45-2.06,2.69-3.47c.33-.39,1.12-1.28,2.37-2.68Z" transform="translate(-4.19 -4.56)"/><path class="cls-6" d="M360.21,104.76c-.68.46-1.51,1-2.49,1.6a15.06,15.06,0,0,1-1.48.83,3.06,3.06,0,0,1-1.41.35,1.3,1.3,0,0,1-1.13-.54,1.06,1.06,0,0,1-.21-.63,5.06,5.06,0,0,1,1.32-2.82,14.83,14.83,0,0,1,3.26-2.92A6.66,6.66,0,0,1,361,99.22a.64.64,0,0,1,.36.11.33.33,0,0,1,.14.26.45.45,0,0,1-.26.41,3.84,3.84,0,0,1-.61.3,11.81,11.81,0,0,0-1.8,1,11.12,11.12,0,0,0-2.72,2.53A4.66,4.66,0,0,0,355,106a.33.33,0,0,0,.12.25.56.56,0,0,0,.41.15,4.36,4.36,0,0,0,1.69-.66,18.79,18.79,0,0,0,2.31-1.43q2.57-1.94,3.85-3.13c.82-.77,1.51-1.39,2.07-1.85a2.12,2.12,0,0,1,1.11-.59.6.6,0,0,1,.44.18.49.49,0,0,1,.14.34c0,.21-.16.46-.49.75q-3.53,3.21-4.66,4.37a25.46,25.46,0,0,0-3,3.71A23.12,23.12,0,0,0,357.2,111a2,2,0,0,1-.56.85,1,1,0,0,1-.58.18c-.41,0-.61-.13-.61-.4a4.88,4.88,0,0,1,.82-1.81,22.61,22.61,0,0,1,2.34-3.2C359.4,105.72,359.93,105.1,360.21,104.76Z" transform="translate(-4.19 -4.56)"/></svg>